<svg width="181" height="214" viewBox="0 0 181 214" fill="none" xmlns="http://www.w3.org/2000/svg">
<g clip-path="url(#clip0)">
<path d="M0.929108 3.57913C0.929108 1.92227 2.27226 0.579132 3.92911 0.579132H177.929C179.586 0.579132 180.929 1.92228 180.929 3.57913V183.579H0.929108V3.57913Z" fill="#EFF7FF"/>
<path opacity="0.2" d="M0.929108 3.57913C0.929108 1.92227 2.27226 0.579132 3.92911 0.579132H177.929C179.586 0.579132 180.929 1.92228 180.929 3.57913V15.4976H0.929108V3.57913Z" fill="#EFF7FF"/>
<path opacity="0.5" fill-rule="evenodd" clip-rule="evenodd" d="M157.5 10.9728C158.881 10.9728 160 9.85962 160 8.48641C160 7.11321 158.881 6 157.5 6C156.119 6 155 7.11321 155 8.48641C155 9.85962 156.119 10.9728 157.5 10.9728ZM165.5 10.9728C166.881 10.9728 168 9.85962 168 8.48641C168 7.11321 166.881 6 165.5 6C164.119 6 163 7.11321 163 8.48641C163 9.85962 164.119 10.9728 165.5 10.9728ZM176 8.48641C176 9.85962 174.881 10.9728 173.5 10.9728C172.119 10.9728 171 9.85962 171 8.48641C171 7.11321 172.119 6 173.5 6C174.881 6 176 7.11321 176 8.48641Z" fill="#0D87FF"/>
<path opacity="0.5" fill-rule="evenodd" clip-rule="evenodd" d="M134.5 10.9728C135.881 10.9728 137 9.85962 137 8.48641C137 7.11321 135.881 6 134.5 6C133.119 6 132 7.11321 132 8.48641C132 9.85962 133.119 10.9728 134.5 10.9728ZM142.5 10.9728C143.881 10.9728 145 9.85962 145 8.48641C145 7.11321 143.881 6 142.5 6C141.119 6 140 7.11321 140 8.48641C140 9.85962 141.119 10.9728 142.5 10.9728ZM153 8.48641C153 9.85962 151.881 10.9728 150.5 10.9728C149.119 10.9728 148 9.85962 148 8.48641C148 7.11321 149.119 6 150.5 6C151.881 6 153 7.11321 153 8.48641Z" fill="#0D87FF"/>
<path opacity="0.2" d="M168.929 25.4431H12.9291C11.8245 25.4431 10.9291 26.3386 10.9291 27.4431V85.1061C10.9291 86.2107 11.8245 87.1061 12.9291 87.1061H168.929C170.034 87.1061 170.929 86.2107 170.929 85.1061V27.4431C170.929 26.3386 170.034 25.4431 168.929 25.4431Z" fill="#58A8F7"/>
<mask id="mask0" style="mask-type:alpha" maskUnits="userSpaceOnUse" x="1" y="25" width="180" height="63">
<path d="M178.75 25.4431H3.25C2.00736 25.4431 1 26.3386 1 27.4431V85.1061C1 86.2107 2.00736 87.1061 3.25 87.1061H178.75C179.993 87.1061 181 86.2107 181 85.1061V27.4431C181 26.3386 179.993 25.4431 178.75 25.4431Z" fill="white"/>
</mask>
<g mask="url(#mask0)">
<path opacity="0.2" d="M187.881 72.8387C183.996 96.2657 168.167 105.368 145.677 125.093C148.765 106.472 161.985 26.7497 165.799 3.75034C177.915 26.1281 191.766 49.4106 187.881 72.8387Z" fill="#58A8F7"/>
<path opacity="0.2" d="M123.652 62.3685C118.15 87.1476 96.7372 99.2154 72.2301 117.02C78.6854 87.9517 94.318 17.5568 100.196 -8.91172C115.031 16.8381 129.155 37.5895 123.652 62.3685Z" fill="#0D87FF"/>
<path opacity="0.2" d="M93.8509 62.2521C88.753 95.058 67.3845 113.476 43 139.726C48.9805 101.241 63.4631 8.04264 68.9086 -27C84.3323 4.41331 98.9488 29.4462 93.8509 62.2521Z" fill="#0D87FF"/>
<path opacity="0.2" d="M37.6451 43.9147C38.0338 69.2944 20.0005 85.9954 0.286032 108.995C-0.170025 79.2211 -1.27445 7.11976 -1.68971 -19.9904C18.7081 1.62117 37.2563 18.535 37.6451 43.9147Z" fill="#0D87FF"/>
<path opacity="0.2" d="M67.3005 58.8391C62.4945 83.7627 41.4288 96.426 17.4304 114.911C23.0683 85.6727 36.7215 14.8673 41.8551 -11.7556C57.406 13.5682 72.1064 33.9155 67.3005 58.8391Z" fill="#0D87FF"/>
<path opacity="0.2" d="M155.461 61.8771C151.928 87.0128 131.534 100.731 108.506 120.412C112.65 90.925 122.686 19.5169 126.459 -7.33255C143.277 17.1678 158.993 36.7414 155.461 61.8771Z" fill="#0D87FF"/>
</g>
<path opacity="0.2" d="M21 103H11V105.984H21V103Z" fill="#58A8F7"/>
<path opacity="0.498717" d="M61 108.967H11V116.924H61V108.967Z" fill="#58A8F7"/>
<g filter="url(#filter0_d)">
<path opacity="0.498717" d="M110 39H60V46.9565H110V39Z" fill="#EFF7FF"/>
</g>
<path opacity="0.2" d="M84 135.821H11V138.805H84V135.821Z" fill="#58A8F7"/>
<path opacity="0.2" d="M84 121.897H11V124.881H84V121.897Z" fill="#58A8F7"/>
<g filter="url(#filter1_d)">
<path opacity="0.498717" d="M103 49H64V53.9728H103V49Z" fill="#EFF7FF"/>
</g>
<path opacity="0.498717" d="M67.4864 72.5H101.514C102.611 72.5 103.5 73.3893 103.5 74.4864C103.5 75.5835 102.611 76.4728 101.514 76.4728H67.4864C66.3893 76.4728 65.5 75.5835 65.5 74.4864C65.5 73.3893 66.3893 72.5 67.4864 72.5Z" fill="#58A8F7" stroke="black"/>
<path opacity="0.498717" d="M13.4864 165.5H85.5136C86.6107 165.5 87.5 166.389 87.5 167.486C87.5 168.583 86.6107 169.473 85.5136 169.473H13.4864C12.3893 169.473 11.5 168.583 11.5 167.486C11.5 166.389 12.3893 165.5 13.4864 165.5Z" fill="#58A8F7" stroke="black"/>
<path opacity="0.498717" d="M11.5 157.5H87.5V161.473H11.5V157.5Z" fill="#58A8F7" stroke="black"/>
<path opacity="0.5" d="M10.5 14C13.5378 14 16 11.5376 16 8.5C16 5.46247 13.5378 3 10.5 3C7.46241 3 5 5.46247 5 8.5C5 11.5376 7.46241 14 10.5 14Z" fill="#58A8F7"/>
<path d="M164.408 94H98.5918C96.0558 94 94 95.3431 94 97V167.581C94 169.238 96.0558 170.581 98.5918 170.581H164.408C166.944 170.581 169 169.238 169 167.581V97C169 95.3431 166.944 94 164.408 94Z" fill="white"/>
<path opacity="0.498717" d="M164 101.956H99V106.929H164V101.956Z" fill="#58A8F7"/>
<path opacity="0.498717" d="M152.333 111.902H99V116.875H152.333V111.902Z" fill="#58A8F7"/>
<path opacity="0.498717" d="M157.333 121.848H99V126.821H157.333V121.848Z" fill="#58A8F7"/>
<path opacity="0.498717" d="M140.667 131.793H99V136.766H140.667V131.793Z" fill="#58A8F7"/>
<path opacity="0.498717" d="M140.667 151.685H99V156.658H140.667V151.685Z" fill="#58A8F7"/>
<path opacity="0.498717" d="M160.667 141.739H99V146.712H160.667V141.739Z" fill="#58A8F7"/>
<path d="M125.127 97.3374C125.127 97.6808 125.073 97.9771 124.964 98.2261C124.855 98.4735 124.702 98.6672 124.505 98.8071L125.14 99.3052L124.82 99.6006L124.07 99.0049C123.953 99.0342 123.829 99.0488 123.699 99.0488C123.419 99.0488 123.171 98.9805 122.955 98.8438C122.738 98.7054 122.57 98.5093 122.449 98.2554C122.33 97.9998 122.269 97.7044 122.266 97.3691V97.1128C122.266 96.771 122.326 96.4691 122.444 96.207C122.563 95.945 122.731 95.7448 122.947 95.6064C123.165 95.4665 123.414 95.3965 123.694 95.3965C123.981 95.3965 124.232 95.4657 124.449 95.604C124.667 95.7424 124.834 95.9417 124.952 96.2021C125.069 96.4609 125.127 96.7637 125.127 97.1104V97.3374ZM124.659 97.1079C124.659 96.6896 124.575 96.3674 124.407 96.1411C124.241 95.9132 124.004 95.7993 123.694 95.7993C123.4 95.7993 123.167 95.9124 122.996 96.1387C122.827 96.3633 122.74 96.6758 122.735 97.0762V97.3374C122.735 97.7443 122.819 98.0649 122.989 98.2993C123.16 98.5337 123.396 98.6509 123.699 98.6509C124.002 98.6509 124.236 98.541 124.402 98.3213C124.568 98.0999 124.654 97.7834 124.659 97.3716V97.1079ZM127.41 98.7388C127.234 98.9455 126.976 99.0488 126.636 99.0488C126.355 99.0488 126.14 98.9674 125.992 98.8047C125.845 98.6403 125.771 98.3978 125.77 98.0771V96.3584H126.221V98.0649C126.221 98.4653 126.384 98.6655 126.709 98.6655C127.055 98.6655 127.284 98.5369 127.398 98.2798V96.3584H127.85V99H127.42L127.41 98.7388ZM128.418 97.6548C128.418 97.396 128.469 97.1632 128.57 96.9565C128.672 96.7498 128.814 96.5903 128.995 96.478C129.177 96.3657 129.384 96.3096 129.617 96.3096C129.977 96.3096 130.267 96.4341 130.489 96.6831C130.712 96.9321 130.823 97.2633 130.823 97.6768V97.7085C130.823 97.9657 130.774 98.1968 130.674 98.4019C130.577 98.6053 130.436 98.764 130.252 98.8779C130.07 98.9919 129.86 99.0488 129.622 99.0488C129.264 99.0488 128.973 98.9243 128.75 98.6753C128.529 98.4263 128.418 98.0967 128.418 97.6865V97.6548ZM128.873 97.7085C128.873 98.0015 128.94 98.2367 129.075 98.4141C129.212 98.5915 129.394 98.6802 129.622 98.6802C129.852 98.6802 130.034 98.5907 130.169 98.4116C130.304 98.231 130.372 97.9787 130.372 97.6548C130.372 97.3651 130.302 97.1307 130.164 96.9517C130.027 96.771 129.845 96.6807 129.617 96.6807C129.394 96.6807 129.214 96.7694 129.078 96.9468C128.941 97.1242 128.873 97.3781 128.873 97.7085ZM132.002 95.7188V96.3584H132.496V96.7075H132.002V98.3457C132.002 98.4515 132.024 98.5312 132.068 98.585C132.112 98.637 132.187 98.6631 132.293 98.6631C132.345 98.6631 132.417 98.6533 132.508 98.6338V99C132.389 99.0326 132.273 99.0488 132.161 99.0488C131.959 99.0488 131.807 98.9878 131.705 98.8657C131.602 98.7437 131.551 98.5703 131.551 98.3457V96.7075H131.07V96.3584H131.551V95.7188H132.002ZM134.122 99.0488C133.764 99.0488 133.472 98.9316 133.248 98.6973C133.023 98.4613 132.911 98.1463 132.911 97.7524V97.6694C132.911 97.4074 132.96 97.1738 133.06 96.9688C133.16 96.762 133.3 96.6009 133.479 96.4854C133.66 96.3682 133.855 96.3096 134.065 96.3096C134.409 96.3096 134.676 96.4227 134.866 96.6489C135.057 96.8752 135.152 97.1991 135.152 97.6206V97.8086H133.362C133.369 98.069 133.444 98.2798 133.589 98.4409C133.736 98.6004 133.921 98.6802 134.146 98.6802C134.306 98.6802 134.441 98.6476 134.551 98.5825C134.662 98.5174 134.759 98.4312 134.842 98.3237L135.118 98.5386C134.896 98.8787 134.564 99.0488 134.122 99.0488ZM134.065 96.6807C133.883 96.6807 133.73 96.7474 133.606 96.8809C133.483 97.0127 133.406 97.1982 133.377 97.4375H134.7V97.4033C134.687 97.1738 134.625 96.9964 134.515 96.8711C134.404 96.7441 134.254 96.6807 134.065 96.6807ZM137.215 98.2993C137.215 98.1772 137.168 98.0828 137.076 98.0161C136.985 97.9478 136.824 97.8892 136.595 97.8403C136.367 97.7915 136.185 97.7329 136.05 97.6646C135.917 97.5962 135.818 97.5148 135.752 97.4204C135.689 97.326 135.657 97.2137 135.657 97.0835C135.657 96.867 135.748 96.6839 135.931 96.5342C136.115 96.3844 136.349 96.3096 136.634 96.3096C136.933 96.3096 137.176 96.3869 137.361 96.5415C137.549 96.6961 137.642 96.8939 137.642 97.1348H137.188C137.188 97.0111 137.135 96.9045 137.029 96.8149C136.925 96.7254 136.793 96.6807 136.634 96.6807C136.469 96.6807 136.341 96.7165 136.248 96.7881C136.155 96.8597 136.109 96.9533 136.109 97.0688C136.109 97.1779 136.152 97.2601 136.238 97.3154C136.325 97.3708 136.48 97.4237 136.705 97.4741C136.931 97.5246 137.114 97.5848 137.254 97.6548C137.394 97.7248 137.497 97.8094 137.564 97.9087C137.632 98.0063 137.667 98.126 137.667 98.2676C137.667 98.5036 137.572 98.6932 137.383 98.8364C137.194 98.978 136.95 99.0488 136.648 99.0488C136.437 99.0488 136.25 99.0114 136.087 98.9365C135.924 98.8617 135.796 98.7575 135.704 98.624C135.612 98.4889 135.567 98.3433 135.567 98.187H136.019C136.027 98.3384 136.087 98.4588 136.199 98.5483C136.313 98.6362 136.463 98.6802 136.648 98.6802C136.819 98.6802 136.956 98.646 137.059 98.5776C137.163 98.5076 137.215 98.4149 137.215 98.2993Z" fill="black"/>
<path d="M72.0181 41.4453L73.1802 44.3457L74.3423 41.4453H74.9502V45H74.4814V43.6157L74.5254 42.1216L73.3584 45H72.9995L71.835 42.1289L71.8813 43.6157V45H71.4126V41.4453H72.0181ZM77.3379 45C77.3118 44.9479 77.2907 44.8551 77.2744 44.7217C77.0645 44.9398 76.8138 45.0488 76.5225 45.0488C76.262 45.0488 76.048 44.9756 75.8804 44.8291C75.7144 44.681 75.6313 44.4938 75.6313 44.2676C75.6313 43.9925 75.7355 43.7793 75.9438 43.6279C76.1538 43.4749 76.4484 43.3984 76.8276 43.3984H77.2671V43.1909C77.2671 43.033 77.2199 42.9077 77.1255 42.8149C77.0311 42.7205 76.8919 42.6733 76.708 42.6733C76.5469 42.6733 76.4118 42.714 76.3027 42.7954C76.1937 42.8768 76.1392 42.9753 76.1392 43.0908H75.6851C75.6851 42.959 75.7314 42.832 75.8242 42.71C75.9186 42.5863 76.0456 42.4886 76.2051 42.417C76.3662 42.3454 76.5428 42.3096 76.7349 42.3096C77.0392 42.3096 77.2777 42.3861 77.4502 42.5391C77.6227 42.6904 77.7122 42.8996 77.7188 43.1665V44.3823C77.7188 44.6248 77.7497 44.8177 77.8115 44.9609V45H77.3379ZM76.5884 44.6558C76.73 44.6558 76.8643 44.6191 76.9912 44.5459C77.1182 44.4727 77.2101 44.3774 77.2671 44.2603V43.7183H76.9131C76.3597 43.7183 76.083 43.8802 76.083 44.2041C76.083 44.3457 76.1302 44.4564 76.2246 44.5361C76.319 44.6159 76.4403 44.6558 76.5884 44.6558ZM78.9175 45H78.4658V42.3584H78.9175V45ZM78.4292 41.6577C78.4292 41.5845 78.4512 41.5226 78.4951 41.4722C78.5407 41.4217 78.6074 41.3965 78.6953 41.3965C78.7832 41.3965 78.8499 41.4217 78.8955 41.4722C78.9411 41.5226 78.9639 41.5845 78.9639 41.6577C78.9639 41.731 78.9411 41.792 78.8955 41.8408C78.8499 41.8896 78.7832 41.9141 78.6953 41.9141C78.6074 41.9141 78.5407 41.8896 78.4951 41.8408C78.4512 41.792 78.4292 41.731 78.4292 41.6577ZM80.0698 42.3584L80.0845 42.6904C80.2863 42.4365 80.55 42.3096 80.8755 42.3096C81.4338 42.3096 81.7153 42.6245 81.7202 43.2544V45H81.2686V43.252C81.2669 43.0615 81.223 42.9207 81.1367 42.8296C81.0521 42.7384 80.9194 42.6929 80.7388 42.6929C80.5923 42.6929 80.4637 42.7319 80.353 42.8101C80.2424 42.8882 80.1561 42.9907 80.0942 43.1177V45H79.6426V42.3584H80.0698ZM86.4272 43.3374C86.4272 43.6808 86.3727 43.9771 86.2637 44.2261C86.1546 44.4735 86.0016 44.6672 85.8047 44.8071L86.4395 45.3052L86.1196 45.6006L85.3701 45.0049C85.2529 45.0342 85.1292 45.0488 84.999 45.0488C84.7191 45.0488 84.4709 44.9805 84.2544 44.8438C84.0379 44.7054 83.8695 44.5093 83.749 44.2554C83.6302 43.9998 83.5692 43.7044 83.5659 43.3691V43.1128C83.5659 42.771 83.6253 42.4691 83.7441 42.207C83.863 41.945 84.0306 41.7448 84.2471 41.6064C84.4652 41.4665 84.7142 41.3965 84.9941 41.3965C85.2806 41.3965 85.5321 41.4657 85.7485 41.604C85.9666 41.7424 86.1343 41.9417 86.2515 42.2021C86.3687 42.4609 86.4272 42.7637 86.4272 43.1104V43.3374ZM85.9585 43.1079C85.9585 42.6896 85.8747 42.3674 85.707 42.1411C85.541 41.9132 85.3034 41.7993 84.9941 41.7993C84.6995 41.7993 84.4668 41.9124 84.2959 42.1387C84.1266 42.3633 84.0396 42.6758 84.0347 43.0762V43.3374C84.0347 43.7443 84.1193 44.0649 84.2886 44.2993C84.4595 44.5337 84.6963 44.6509 84.999 44.6509C85.3018 44.6509 85.5361 44.541 85.7021 44.3213C85.8682 44.0999 85.9536 43.7834 85.9585 43.3716V43.1079ZM88.71 44.7388C88.5342 44.9455 88.2762 45.0488 87.936 45.0488C87.6545 45.0488 87.4396 44.9674 87.2915 44.8047C87.145 44.6403 87.071 44.3978 87.0693 44.0771V42.3584H87.521V44.0649C87.521 44.4653 87.6838 44.6655 88.0093 44.6655C88.3543 44.6655 88.5838 44.5369 88.6978 44.2798V42.3584H89.1494V45H88.7197L88.71 44.7388ZM89.7183 43.6548C89.7183 43.396 89.7687 43.1632 89.8696 42.9565C89.9722 42.7498 90.1138 42.5903 90.2944 42.478C90.4767 42.3657 90.6842 42.3096 90.917 42.3096C91.2767 42.3096 91.5672 42.4341 91.7886 42.6831C92.0116 42.9321 92.123 43.2633 92.123 43.6768V43.7085C92.123 43.9657 92.0734 44.1968 91.9741 44.4019C91.8765 44.6053 91.7357 44.764 91.5518 44.8779C91.3695 44.9919 91.1595 45.0488 90.9219 45.0488C90.5638 45.0488 90.2733 44.9243 90.0503 44.6753C89.8289 44.4263 89.7183 44.0967 89.7183 43.6865V43.6548ZM90.1724 43.7085C90.1724 44.0015 90.2399 44.2367 90.375 44.4141C90.5117 44.5915 90.694 44.6802 90.9219 44.6802C91.1514 44.6802 91.3337 44.5907 91.4688 44.4116C91.6038 44.231 91.6714 43.9787 91.6714 43.6548C91.6714 43.3651 91.6022 43.1307 91.4639 42.9517C91.3271 42.771 91.1449 42.6807 90.917 42.6807C90.694 42.6807 90.5142 42.7694 90.3774 42.9468C90.2407 43.1242 90.1724 43.3781 90.1724 43.7085ZM93.3022 41.7188V42.3584H93.7954V42.7075H93.3022V44.3457C93.3022 44.4515 93.3242 44.5312 93.3682 44.585C93.4121 44.637 93.487 44.6631 93.5928 44.6631C93.6449 44.6631 93.7165 44.6533 93.8076 44.6338V45C93.6888 45.0326 93.5732 45.0488 93.4609 45.0488C93.2591 45.0488 93.1069 44.9878 93.0044 44.8657C92.9019 44.7437 92.8506 44.5703 92.8506 44.3457V42.7075H92.3696V42.3584H92.8506V41.7188H93.3022ZM95.4214 45.0488C95.0633 45.0488 94.772 44.9316 94.5474 44.6973C94.3228 44.4613 94.2104 44.1463 94.2104 43.7524V43.6694C94.2104 43.4074 94.2601 43.1738 94.3594 42.9688C94.4603 42.762 94.6003 42.6009 94.7793 42.4854C94.96 42.3682 95.1553 42.3096 95.3652 42.3096C95.7087 42.3096 95.9756 42.4227 96.166 42.6489C96.3564 42.8752 96.4517 43.1991 96.4517 43.6206V43.8086H94.6621C94.6686 44.069 94.7443 44.2798 94.8892 44.4409C95.0356 44.6004 95.2212 44.6802 95.4458 44.6802C95.6053 44.6802 95.7404 44.6476 95.8511 44.5825C95.9618 44.5174 96.0586 44.4312 96.1416 44.3237L96.4175 44.5386C96.1961 44.8787 95.8641 45.0488 95.4214 45.0488ZM95.3652 42.6807C95.1829 42.6807 95.0299 42.7474 94.9062 42.8809C94.7826 43.0127 94.7061 43.1982 94.6768 43.4375H96V43.4033C95.987 43.1738 95.9251 42.9964 95.8145 42.8711C95.7038 42.7441 95.554 42.6807 95.3652 42.6807Z" fill="black"/>
<path d="M3.91504 145.445V147.862C3.91341 148.198 3.80762 148.472 3.59766 148.685C3.38932 148.898 3.10612 149.018 2.74805 149.044L2.62354 149.049C2.23454 149.049 1.92448 148.944 1.69336 148.734C1.46224 148.524 1.34505 148.235 1.3418 147.867V145.445H1.80566V147.853C1.80566 148.11 1.87646 148.31 2.01807 148.453C2.15967 148.595 2.36149 148.666 2.62354 148.666C2.88883 148.666 3.09147 148.595 3.23145 148.453C3.37305 148.312 3.44385 148.112 3.44385 147.855V145.445H3.91504ZM6.12207 148.299C6.12207 148.177 6.07568 148.083 5.98291 148.016C5.89176 147.948 5.73145 147.889 5.50195 147.84C5.27409 147.792 5.09261 147.733 4.95752 147.665C4.82406 147.596 4.72477 147.515 4.65967 147.42C4.59619 147.326 4.56445 147.214 4.56445 147.083C4.56445 146.867 4.6556 146.684 4.83789 146.534C5.02181 146.384 5.25618 146.31 5.54102 146.31C5.84049 146.31 6.08301 146.387 6.26855 146.542C6.45573 146.696 6.54932 146.894 6.54932 147.135H6.09521C6.09521 147.011 6.04232 146.904 5.93652 146.815C5.83236 146.725 5.70052 146.681 5.54102 146.681C5.37663 146.681 5.24805 146.716 5.15527 146.788C5.0625 146.86 5.01611 146.953 5.01611 147.069C5.01611 147.178 5.05924 147.26 5.14551 147.315C5.23177 147.371 5.38721 147.424 5.61182 147.474C5.83805 147.525 6.02116 147.585 6.16113 147.655C6.30111 147.725 6.40446 147.809 6.47119 147.909C6.53955 148.006 6.57373 148.126 6.57373 148.268C6.57373 148.504 6.47933 148.693 6.29053 148.836C6.10173 148.978 5.85677 149.049 5.55566 149.049C5.34408 149.049 5.1569 149.011 4.99414 148.937C4.83138 148.862 4.70361 148.757 4.61084 148.624C4.51969 148.489 4.47412 148.343 4.47412 148.187H4.92578C4.93392 148.338 4.99414 148.459 5.10645 148.548C5.22038 148.636 5.37012 148.68 5.55566 148.68C5.72656 148.68 5.86328 148.646 5.96582 148.578C6.06999 148.508 6.12207 148.415 6.12207 148.299ZM8.2583 149.049C7.90023 149.049 7.60889 148.932 7.38428 148.697C7.15967 148.461 7.04736 148.146 7.04736 147.752V147.669C7.04736 147.407 7.09701 147.174 7.19629 146.969C7.2972 146.762 7.43717 146.601 7.61621 146.485C7.79688 146.368 7.99219 146.31 8.20215 146.31C8.54557 146.31 8.8125 146.423 9.00293 146.649C9.19336 146.875 9.28857 147.199 9.28857 147.621V147.809H7.49902C7.50553 148.069 7.58122 148.28 7.72607 148.441C7.87256 148.6 8.05811 148.68 8.28271 148.68C8.44222 148.68 8.57731 148.648 8.68799 148.583C8.79867 148.517 8.89551 148.431 8.97852 148.324L9.25439 148.539C9.03304 148.879 8.70101 149.049 8.2583 149.049ZM8.20215 146.681C8.01986 146.681 7.86686 146.747 7.74316 146.881C7.61947 147.013 7.54297 147.198 7.51367 147.438H8.83691V147.403C8.82389 147.174 8.76204 146.996 8.65137 146.871C8.54069 146.744 8.39095 146.681 8.20215 146.681ZM11.0903 146.764C11.022 146.752 10.9479 146.747 10.8682 146.747C10.5719 146.747 10.3709 146.873 10.2651 147.125V149H9.81348V146.358H10.2529L10.2603 146.664C10.4084 146.428 10.6183 146.31 10.8901 146.31C10.978 146.31 11.0448 146.321 11.0903 146.344V146.764ZM13.2388 149H12.7871V146.358H13.2388V149ZM12.7505 145.658C12.7505 145.584 12.7725 145.523 12.8164 145.472C12.862 145.422 12.9287 145.396 13.0166 145.396C13.1045 145.396 13.1712 145.422 13.2168 145.472C13.2624 145.523 13.2852 145.584 13.2852 145.658C13.2852 145.731 13.2624 145.792 13.2168 145.841C13.1712 145.89 13.1045 145.914 13.0166 145.914C12.9287 145.914 12.862 145.89 12.8164 145.841C12.7725 145.792 12.7505 145.731 12.7505 145.658ZM14.3911 146.358L14.4058 146.69C14.6076 146.437 14.8713 146.31 15.1968 146.31C15.755 146.31 16.0366 146.625 16.0415 147.254V149H15.5898V147.252C15.5882 147.062 15.5443 146.921 15.458 146.83C15.3734 146.738 15.2407 146.693 15.0601 146.693C14.9136 146.693 14.785 146.732 14.6743 146.81C14.5636 146.888 14.4774 146.991 14.4155 147.118V149H13.9639V146.358H14.3911ZM18.9541 147.708C18.9541 148.111 18.8621 148.434 18.6782 148.68C18.4943 148.926 18.2453 149.049 17.9312 149.049C17.6105 149.049 17.3582 148.947 17.1743 148.744V150.016H16.7227V146.358H17.1353L17.1572 146.651C17.3411 146.424 17.5967 146.31 17.9238 146.31C18.2412 146.31 18.4919 146.429 18.6758 146.668C18.8613 146.908 18.9541 147.241 18.9541 147.667V147.708ZM18.5024 147.657C18.5024 147.359 18.439 147.124 18.312 146.952C18.1851 146.779 18.0109 146.693 17.7896 146.693C17.5161 146.693 17.311 146.814 17.1743 147.057V148.319C17.3094 148.56 17.5161 148.68 17.7944 148.68C18.0109 148.68 18.1826 148.595 18.3096 148.424C18.4382 148.251 18.5024 147.996 18.5024 147.657ZM21.1611 148.739C20.9854 148.945 20.7274 149.049 20.3872 149.049C20.1056 149.049 19.8908 148.967 19.7427 148.805C19.5962 148.64 19.5221 148.398 19.5205 148.077V146.358H19.9722V148.065C19.9722 148.465 20.1349 148.666 20.4604 148.666C20.8055 148.666 21.035 148.537 21.1489 148.28V146.358H21.6006V149H21.1709L21.1611 148.739ZM22.9019 145.719V146.358H23.395V146.708H22.9019V148.346C22.9019 148.451 22.9238 148.531 22.9678 148.585C23.0117 148.637 23.0866 148.663 23.1924 148.663C23.2445 148.663 23.3161 148.653 23.4072 148.634V149C23.2884 149.033 23.1729 149.049 23.0605 149.049C22.8587 149.049 22.7065 148.988 22.604 148.866C22.5015 148.744 22.4502 148.57 22.4502 148.346V146.708H21.9692V146.358H22.4502V145.719H22.9019Z" fill="black"/>
<path d="M22.8799 68.2993C22.8799 68.1772 22.8335 68.0828 22.7407 68.0161C22.6496 67.9478 22.4893 67.8892 22.2598 67.8403C22.0319 67.7915 21.8504 67.7329 21.7153 67.6646C21.5819 67.5962 21.4826 67.5148 21.4175 67.4204C21.354 67.326 21.3223 67.2137 21.3223 67.0835C21.3223 66.867 21.4134 66.6839 21.5957 66.5342C21.7796 66.3844 22.014 66.3096 22.2988 66.3096C22.5983 66.3096 22.8408 66.3869 23.0264 66.5415C23.2135 66.6961 23.3071 66.8939 23.3071 67.1348H22.853C22.853 67.0111 22.8001 66.9045 22.6943 66.8149C22.5902 66.7254 22.4583 66.6807 22.2988 66.6807C22.1344 66.6807 22.0059 66.7165 21.9131 66.7881C21.8203 66.8597 21.7739 66.9533 21.7739 67.0688C21.7739 67.1779 21.8171 67.2601 21.9033 67.3154C21.9896 67.3708 22.145 67.4237 22.3696 67.4741C22.5959 67.5246 22.779 67.5848 22.9189 67.6548C23.0589 67.7248 23.1623 67.8094 23.229 67.9087C23.2974 68.0063 23.3315 68.126 23.3315 68.2676C23.3315 68.5036 23.2371 68.6932 23.0483 68.8364C22.8595 68.978 22.6146 69.0488 22.3135 69.0488C22.1019 69.0488 21.9147 69.0114 21.752 68.9365C21.5892 68.8617 21.4614 68.7575 21.3687 68.624C21.2775 68.4889 21.2319 68.3433 21.2319 68.187H21.6836C21.6917 68.3384 21.752 68.4588 21.8643 68.5483C21.9782 68.6362 22.1279 68.6802 22.3135 68.6802C22.4844 68.6802 22.6211 68.646 22.7236 68.5776C22.8278 68.5076 22.8799 68.4149 22.8799 68.2993ZM24.3716 66.6782C24.5718 66.4325 24.8322 66.3096 25.1528 66.3096C25.7111 66.3096 25.9927 66.6245 25.9976 67.2544V69H25.5459V67.252C25.5443 67.0615 25.5003 66.9207 25.4141 66.8296C25.3294 66.7384 25.1968 66.6929 25.0161 66.6929C24.8696 66.6929 24.741 66.7319 24.6304 66.8101C24.5197 66.8882 24.4334 66.9907 24.3716 67.1177V69H23.9199V65.25H24.3716V66.6782ZM26.5542 67.6548C26.5542 67.396 26.6047 67.1632 26.7056 66.9565C26.8081 66.7498 26.9497 66.5903 27.1304 66.478C27.3127 66.3657 27.5202 66.3096 27.7529 66.3096C28.1126 66.3096 28.4032 66.4341 28.6245 66.6831C28.8475 66.9321 28.959 67.2633 28.959 67.6768V67.7085C28.959 67.9657 28.9093 68.1968 28.8101 68.4019C28.7124 68.6053 28.5716 68.764 28.3877 68.8779C28.2054 68.9919 27.9954 69.0488 27.7578 69.0488C27.3997 69.0488 27.1092 68.9243 26.8862 68.6753C26.6649 68.4263 26.5542 68.0967 26.5542 67.6865V67.6548ZM27.0083 67.7085C27.0083 68.0015 27.0758 68.2367 27.2109 68.4141C27.3477 68.5915 27.5299 68.6802 27.7578 68.6802C27.9873 68.6802 28.1696 68.5907 28.3047 68.4116C28.4398 68.231 28.5073 67.9787 28.5073 67.6548C28.5073 67.3651 28.4382 67.1307 28.2998 66.9517C28.1631 66.771 27.9808 66.6807 27.7529 66.6807C27.5299 66.6807 27.3501 66.7694 27.2134 66.9468C27.0767 67.1242 27.0083 67.3781 27.0083 67.7085ZM31.8643 68.3774L32.3721 66.3584H32.8237L32.0547 69H31.6885L31.0464 66.998L30.4214 69H30.0552L29.2886 66.3584H29.7378L30.2578 68.3359L30.873 66.3584H31.2368L31.8643 68.3774ZM34.9526 66.3584L34.9673 66.6904C35.1691 66.4365 35.4328 66.3096 35.7583 66.3096C36.3166 66.3096 36.5981 66.6245 36.603 67.2544V69H36.1514V67.252C36.1497 67.0615 36.1058 66.9207 36.0195 66.8296C35.9349 66.7384 35.8022 66.6929 35.6216 66.6929C35.4751 66.6929 35.3465 66.7319 35.2358 66.8101C35.1252 66.8882 35.0389 66.9907 34.9771 67.1177V69H34.5254V66.3584H34.9526ZM38.3804 69.0488C38.0223 69.0488 37.731 68.9316 37.5063 68.6973C37.2817 68.4613 37.1694 68.1463 37.1694 67.7524V67.6694C37.1694 67.4074 37.2191 67.1738 37.3184 66.9688C37.4193 66.762 37.5592 66.6009 37.7383 66.4854C37.9189 66.3682 38.1143 66.3096 38.3242 66.3096C38.6676 66.3096 38.9346 66.4227 39.125 66.6489C39.3154 66.8752 39.4106 67.1991 39.4106 67.6206V67.8086H37.6211C37.6276 68.069 37.7033 68.2798 37.8481 68.4409C37.9946 68.6004 38.1802 68.6802 38.4048 68.6802C38.5643 68.6802 38.6994 68.6476 38.8101 68.5825C38.9207 68.5174 39.0176 68.4312 39.1006 68.3237L39.3765 68.5386C39.1551 68.8787 38.8231 69.0488 38.3804 69.0488ZM38.3242 66.6807C38.1419 66.6807 37.9889 66.7474 37.8652 66.8809C37.7415 67.0127 37.665 67.1982 37.6357 67.4375H38.959V67.4033C38.946 67.1738 38.8841 66.9964 38.7734 66.8711C38.6628 66.7441 38.513 66.6807 38.3242 66.6807ZM42.2744 68.3774L42.7822 66.3584H43.2339L42.4648 69H42.0986L41.4565 66.998L40.8315 69H40.4653L39.6987 66.3584H40.1479L40.668 68.3359L41.2832 66.3584H41.647L42.2744 68.3774ZM47.7212 67.3374C47.7212 67.6808 47.6667 67.9771 47.5576 68.2261C47.4486 68.4735 47.2956 68.6672 47.0986 68.8071L47.7334 69.3052L47.4136 69.6006L46.6641 69.0049C46.5469 69.0342 46.4232 69.0488 46.293 69.0488C46.013 69.0488 45.7648 68.9805 45.5483 68.8438C45.3319 68.7054 45.1634 68.5093 45.043 68.2554C44.9242 67.9998 44.8631 67.7044 44.8599 67.3691V67.1128C44.8599 66.771 44.9193 66.4691 45.0381 66.207C45.1569 65.945 45.3245 65.7448 45.541 65.6064C45.7591 65.4665 46.0081 65.3965 46.2881 65.3965C46.5745 65.3965 46.826 65.4657 47.0425 65.604C47.2606 65.7424 47.4282 65.9417 47.5454 66.2021C47.6626 66.4609 47.7212 66.7637 47.7212 67.1104V67.3374ZM47.2524 67.1079C47.2524 66.6896 47.1686 66.3674 47.001 66.1411C46.835 65.9132 46.5973 65.7993 46.2881 65.7993C45.9935 65.7993 45.7607 65.9124 45.5898 66.1387C45.4206 66.3633 45.3335 66.6758 45.3286 67.0762V67.3374C45.3286 67.7443 45.4132 68.0649 45.5825 68.2993C45.7534 68.5337 45.9902 68.6509 46.293 68.6509C46.5957 68.6509 46.8301 68.541 46.9961 68.3213C47.1621 68.0999 47.2476 67.7834 47.2524 67.3716V67.1079ZM50.0039 68.7388C49.8281 68.9455 49.5701 69.0488 49.23 69.0488C48.9484 69.0488 48.7336 68.9674 48.5854 68.8047C48.439 68.6403 48.3649 68.3978 48.3633 68.0771V66.3584H48.8149V68.0649C48.8149 68.4653 48.9777 68.6655 49.3032 68.6655C49.6483 68.6655 49.8778 68.5369 49.9917 68.2798V66.3584H50.4434V69H50.0137L50.0039 68.7388ZM51.0122 67.6548C51.0122 67.396 51.0627 67.1632 51.1636 66.9565C51.2661 66.7498 51.4077 66.5903 51.5884 66.478C51.7707 66.3657 51.9782 66.3096 52.2109 66.3096C52.5706 66.3096 52.8612 66.4341 53.0825 66.6831C53.3055 66.9321 53.417 67.2633 53.417 67.6768V67.7085C53.417 67.9657 53.3674 68.1968 53.2681 68.4019C53.1704 68.6053 53.0296 68.764 52.8457 68.8779C52.6634 68.9919 52.4535 69.0488 52.2158 69.0488C51.8577 69.0488 51.5672 68.9243 51.3442 68.6753C51.1229 68.4263 51.0122 68.0967 51.0122 67.6865V67.6548ZM51.4663 67.7085C51.4663 68.0015 51.5339 68.2367 51.6689 68.4141C51.8057 68.5915 51.988 68.6802 52.2158 68.6802C52.4453 68.6802 52.6276 68.5907 52.7627 68.4116C52.8978 68.231 52.9653 67.9787 52.9653 67.6548C52.9653 67.3651 52.8962 67.1307 52.7578 66.9517C52.6211 66.771 52.4388 66.6807 52.2109 66.6807C51.988 66.6807 51.8081 66.7694 51.6714 66.9468C51.5347 67.1242 51.4663 67.3781 51.4663 67.7085ZM54.5962 65.7188V66.3584H55.0894V66.7075H54.5962V68.3457C54.5962 68.4515 54.6182 68.5312 54.6621 68.585C54.7061 68.637 54.7809 68.6631 54.8867 68.6631C54.9388 68.6631 55.0104 68.6533 55.1016 68.6338V69C54.9827 69.0326 54.8672 69.0488 54.7549 69.0488C54.5531 69.0488 54.4009 68.9878 54.2983 68.8657C54.1958 68.7437 54.1445 68.5703 54.1445 68.3457V66.7075H53.6636V66.3584H54.1445V65.7188H54.5962ZM56.7153 69.0488C56.3573 69.0488 56.0659 68.9316 55.8413 68.6973C55.6167 68.4613 55.5044 68.1463 55.5044 67.7524V67.6694C55.5044 67.4074 55.554 67.1738 55.6533 66.9688C55.7542 66.762 55.8942 66.6009 56.0732 66.4854C56.2539 66.3682 56.4492 66.3096 56.6592 66.3096C57.0026 66.3096 57.2695 66.4227 57.46 66.6489C57.6504 66.8752 57.7456 67.1991 57.7456 67.6206V67.8086H55.9561C55.9626 68.069 56.0382 68.2798 56.1831 68.4409C56.3296 68.6004 56.5151 68.6802 56.7397 68.6802C56.8993 68.6802 57.0343 68.6476 57.145 68.5825C57.2557 68.5174 57.3525 68.4312 57.4355 68.3237L57.7114 68.5386C57.4901 68.8787 57.158 69.0488 56.7153 69.0488ZM56.6592 66.6807C56.4769 66.6807 56.3239 66.7474 56.2002 66.8809C56.0765 67.0127 56 67.1982 55.9707 67.4375H57.2939V67.4033C57.2809 67.1738 57.2191 66.9964 57.1084 66.8711C56.9977 66.7441 56.848 66.6807 56.6592 66.6807ZM62.1963 67.8721C62.1523 68.248 62.0132 68.5386 61.7788 68.7437C61.5461 68.9471 61.236 69.0488 60.8486 69.0488C60.4287 69.0488 60.0918 68.8983 59.8379 68.5972C59.5856 68.2961 59.4595 67.8932 59.4595 67.3887V67.0469C59.4595 66.7165 59.5181 66.4259 59.6353 66.1753C59.7541 65.9246 59.9217 65.7326 60.1382 65.5991C60.3547 65.464 60.6053 65.3965 60.8901 65.3965C61.2677 65.3965 61.5705 65.5023 61.7983 65.7139C62.0262 65.9238 62.1589 66.2152 62.1963 66.5879H61.7251C61.6844 66.3047 61.5957 66.0996 61.459 65.9727C61.3239 65.8457 61.1343 65.7822 60.8901 65.7822C60.5907 65.7822 60.3555 65.8929 60.1846 66.1143C60.0153 66.3356 59.9307 66.6506 59.9307 67.0591V67.4033C59.9307 67.7891 60.0112 68.0959 60.1724 68.3237C60.3335 68.5516 60.5589 68.6655 60.8486 68.6655C61.109 68.6655 61.3084 68.6069 61.4468 68.4897C61.5868 68.3709 61.6795 68.165 61.7251 67.8721H62.1963ZM65.2212 65.8311H64.0786V69H63.6123V65.8311H62.4722V65.4453H65.2212V65.8311ZM67.5161 68.0723H66.0269L65.6924 69H65.209L66.5664 65.4453H66.9766L68.3364 69H67.8555L67.5161 68.0723ZM66.1685 67.6865H67.377L66.7715 66.0239L66.1685 67.6865Z" fill="black"/>
<path d="M105.375 9.07227H103.886L103.552 10H103.068L104.426 6.44531H104.836L106.196 10H105.715L105.375 9.07227ZM104.028 8.68652H105.236L104.631 7.02393L104.028 8.68652ZM108.835 8.7085C108.835 9.11051 108.743 9.43441 108.559 9.68018C108.375 9.92594 108.126 10.0488 107.812 10.0488C107.491 10.0488 107.239 9.9471 107.055 9.74365V11.0156H106.604V7.3584H107.016L107.038 7.65137C107.222 7.4235 107.478 7.30957 107.805 7.30957C108.122 7.30957 108.373 7.4292 108.557 7.66846C108.742 7.90771 108.835 8.24056 108.835 8.66699V8.7085ZM108.383 8.65723C108.383 8.35938 108.32 8.12419 108.193 7.95166C108.066 7.77913 107.892 7.69287 107.67 7.69287C107.397 7.69287 107.192 7.81413 107.055 8.05664V9.31885C107.19 9.55973 107.397 9.68018 107.675 9.68018C107.892 9.68018 108.063 9.59473 108.19 9.42383C108.319 9.2513 108.383 8.99577 108.383 8.65723ZM109.902 10H109.45V7.3584H109.902V10ZM109.414 6.65771C109.414 6.58447 109.436 6.52262 109.479 6.47217C109.525 6.42171 109.592 6.39648 109.68 6.39648C109.768 6.39648 109.834 6.42171 109.88 6.47217C109.925 6.52262 109.948 6.58447 109.948 6.65771C109.948 6.73096 109.925 6.79199 109.88 6.84082C109.834 6.88965 109.768 6.91406 109.68 6.91406C109.592 6.91406 109.525 6.88965 109.479 6.84082C109.436 6.79199 109.414 6.73096 109.414 6.65771ZM114.099 8.7085C114.099 9.11051 114.007 9.43441 113.823 9.68018C113.639 9.92594 113.39 10.0488 113.076 10.0488C112.755 10.0488 112.503 9.9471 112.319 9.74365V11.0156H111.867V7.3584H112.28L112.302 7.65137C112.486 7.4235 112.741 7.30957 113.068 7.30957C113.386 7.30957 113.636 7.4292 113.82 7.66846C114.006 7.90771 114.099 8.24056 114.099 8.66699V8.7085ZM113.647 8.65723C113.647 8.35938 113.583 8.12419 113.457 7.95166C113.33 7.77913 113.155 7.69287 112.934 7.69287C112.661 7.69287 112.456 7.81413 112.319 8.05664V9.31885C112.454 9.55973 112.661 9.68018 112.939 9.68018C113.155 9.68018 113.327 9.59473 113.454 9.42383C113.583 9.2513 113.647 8.99577 113.647 8.65723ZM116.306 10C116.28 9.94792 116.258 9.85514 116.242 9.72168C116.032 9.93978 115.782 10.0488 115.49 10.0488C115.23 10.0488 115.016 9.97559 114.848 9.8291C114.682 9.68099 114.599 9.49382 114.599 9.26758C114.599 8.99251 114.703 8.7793 114.912 8.62793C115.122 8.47493 115.416 8.39844 115.795 8.39844H116.235V8.19092C116.235 8.03304 116.188 7.90771 116.093 7.81494C115.999 7.72054 115.86 7.67334 115.676 7.67334C115.515 7.67334 115.38 7.71403 115.271 7.79541C115.161 7.87679 115.107 7.97526 115.107 8.09082H114.653C114.653 7.95898 114.699 7.83203 114.792 7.70996C114.886 7.58626 115.013 7.48861 115.173 7.41699C115.334 7.34538 115.511 7.30957 115.703 7.30957C116.007 7.30957 116.245 7.38607 116.418 7.53906C116.59 7.69043 116.68 7.89958 116.687 8.1665V9.38232C116.687 9.62484 116.717 9.81771 116.779 9.96094V10H116.306ZM115.556 9.65576C115.698 9.65576 115.832 9.61914 115.959 9.5459C116.086 9.47266 116.178 9.37744 116.235 9.26025V8.71826H115.881C115.327 8.71826 115.051 8.88021 115.051 9.2041C115.051 9.3457 115.098 9.45638 115.192 9.53613C115.287 9.61589 115.408 9.65576 115.556 9.65576ZM117.287 8.65723C117.287 8.24544 117.382 7.91829 117.573 7.67578C117.763 7.43164 118.015 7.30957 118.33 7.30957C118.652 7.30957 118.903 7.4235 119.084 7.65137L119.106 7.3584H119.519V9.93652C119.519 10.2783 119.417 10.5477 119.213 10.7446C119.012 10.9416 118.74 11.04 118.398 11.04C118.208 11.04 118.021 10.9993 117.839 10.918C117.657 10.8366 117.517 10.7251 117.421 10.5835L117.656 10.3125C117.849 10.5518 118.086 10.6714 118.366 10.6714C118.586 10.6714 118.757 10.6095 118.879 10.4858C119.003 10.3621 119.064 10.188 119.064 9.96338V9.73633C118.884 9.94466 118.637 10.0488 118.325 10.0488C118.015 10.0488 117.765 9.92432 117.573 9.67529C117.382 9.42627 117.287 9.08691 117.287 8.65723ZM117.741 8.7085C117.741 9.00635 117.802 9.24072 117.924 9.41162C118.046 9.58089 118.217 9.66553 118.437 9.66553C118.722 9.66553 118.931 9.53613 119.064 9.27734V8.07129C118.926 7.81901 118.719 7.69287 118.442 7.69287C118.222 7.69287 118.05 7.77832 117.927 7.94922C117.803 8.12012 117.741 8.37321 117.741 8.7085ZM121.298 10.0488C120.94 10.0488 120.649 9.93164 120.424 9.69727C120.2 9.46126 120.087 9.14632 120.087 8.75244V8.66943C120.087 8.40739 120.137 8.17383 120.236 7.96875C120.337 7.76204 120.477 7.60091 120.656 7.48535C120.837 7.36816 121.032 7.30957 121.242 7.30957C121.586 7.30957 121.853 7.42269 122.043 7.64893C122.233 7.87516 122.329 8.19906 122.329 8.62061V8.80859H120.539C120.546 9.06901 120.621 9.27979 120.766 9.44092C120.913 9.60042 121.098 9.68018 121.323 9.68018C121.482 9.68018 121.617 9.64762 121.728 9.58252C121.839 9.51742 121.936 9.43115 122.019 9.32373L122.294 9.53857C122.073 9.87874 121.741 10.0488 121.298 10.0488ZM121.242 7.68066C121.06 7.68066 120.907 7.7474 120.783 7.88086C120.66 8.0127 120.583 8.19824 120.554 8.4375H121.877V8.40332C121.864 8.17383 121.802 7.99642 121.691 7.87109C121.581 7.74414 121.431 7.68066 121.242 7.68066Z" fill="black"/>
<path d="M83.9727 181C83.9466 180.948 83.9255 180.855 83.9092 180.722C83.6992 180.94 83.4486 181.049 83.1572 181.049C82.8968 181.049 82.6828 180.976 82.5151 180.829C82.3491 180.681 82.2661 180.494 82.2661 180.268C82.2661 179.993 82.3703 179.779 82.5786 179.628C82.7886 179.475 83.0832 179.398 83.4624 179.398H83.9019V179.191C83.9019 179.033 83.8547 178.908 83.7603 178.815C83.6659 178.721 83.5267 178.673 83.3428 178.673C83.1816 178.673 83.0465 178.714 82.9375 178.795C82.8285 178.877 82.7739 178.975 82.7739 179.091H82.3198C82.3198 178.959 82.3662 178.832 82.459 178.71C82.5534 178.586 82.6803 178.489 82.8398 178.417C83.001 178.345 83.1776 178.31 83.3696 178.31C83.674 178.31 83.9124 178.386 84.085 178.539C84.2575 178.69 84.347 178.9 84.3535 179.167V180.382C84.3535 180.625 84.3844 180.818 84.4463 180.961V181H83.9727ZM83.2231 180.656C83.3647 180.656 83.499 180.619 83.626 180.546C83.7529 180.473 83.8449 180.377 83.9019 180.26V179.718H83.5479C82.9945 179.718 82.7178 179.88 82.7178 180.204C82.7178 180.346 82.765 180.456 82.8594 180.536C82.9538 180.616 83.075 180.656 83.2231 180.656ZM84.9517 179.657C84.9517 179.252 85.0477 178.926 85.2397 178.681C85.4318 178.433 85.6833 178.31 85.9941 178.31C86.3034 178.31 86.5483 178.415 86.729 178.627V177.25H87.1807V181H86.7656L86.7437 180.717C86.563 180.938 86.3115 181.049 85.9893 181.049C85.6833 181.049 85.4334 180.924 85.2397 180.673C85.0477 180.422 84.9517 180.095 84.9517 179.691V179.657ZM85.4033 179.708C85.4033 180.008 85.4652 180.242 85.5889 180.412C85.7126 180.581 85.8835 180.666 86.1016 180.666C86.388 180.666 86.5972 180.537 86.729 180.28V179.066C86.5939 178.817 86.3864 178.693 86.1064 178.693C85.8851 178.693 85.7126 178.778 85.5889 178.949C85.4652 179.12 85.4033 179.373 85.4033 179.708ZM87.7739 179.657C87.7739 179.252 87.87 178.926 88.062 178.681C88.2541 178.433 88.5055 178.31 88.8164 178.31C89.1257 178.31 89.3706 178.415 89.5513 178.627V177.25H90.0029V181H89.5879L89.5659 180.717C89.3853 180.938 89.1338 181.049 88.8115 181.049C88.5055 181.049 88.2557 180.924 88.062 180.673C87.87 180.422 87.7739 180.095 87.7739 179.691V179.657ZM88.2256 179.708C88.2256 180.008 88.2874 180.242 88.4111 180.412C88.5348 180.581 88.7057 180.666 88.9238 180.666C89.2103 180.666 89.4194 180.537 89.5513 180.28V179.066C89.4162 178.817 89.2087 178.693 88.9287 178.693C88.7074 178.693 88.5348 178.778 88.4111 178.949C88.2874 179.12 88.2256 179.373 88.2256 179.708ZM91.8364 179.657C91.8364 179.242 91.9316 178.914 92.1221 178.673C92.3125 178.431 92.568 178.31 92.8887 178.31C93.2012 178.31 93.4478 178.415 93.6284 178.625L93.6479 178.358H94.063V182.016H93.6113V180.756C93.429 180.951 93.1865 181.049 92.8838 181.049C92.5648 181.049 92.3101 180.925 92.1196 180.678C91.9308 180.429 91.8364 180.099 91.8364 179.689V179.657ZM92.2881 179.708C92.2881 180.011 92.3516 180.249 92.4785 180.421C92.6071 180.594 92.7796 180.68 92.9961 180.68C93.2646 180.68 93.4697 180.561 93.6113 180.324V179.03C93.4681 178.797 93.2646 178.681 93.001 178.681C92.7829 178.681 92.6095 178.768 92.481 178.942C92.3524 179.114 92.2881 179.37 92.2881 179.708ZM96.4189 180.739C96.2432 180.945 95.9852 181.049 95.645 181.049C95.3634 181.049 95.1486 180.967 95.0005 180.805C94.854 180.64 94.7799 180.398 94.7783 180.077V178.358H95.23V180.065C95.23 180.465 95.3927 180.666 95.7183 180.666C96.0633 180.666 96.2928 180.537 96.4067 180.28V178.358H96.8584V181H96.4287L96.4189 180.739ZM97.4272 179.655C97.4272 179.396 97.4777 179.163 97.5786 178.957C97.6812 178.75 97.8228 178.59 98.0034 178.478C98.1857 178.366 98.3932 178.31 98.626 178.31C98.9857 178.31 99.2762 178.434 99.4976 178.683C99.7205 178.932 99.832 179.263 99.832 179.677V179.708C99.832 179.966 99.7824 180.197 99.6831 180.402C99.5854 180.605 99.4447 180.764 99.2607 180.878C99.0785 180.992 98.8685 181.049 98.6309 181.049C98.2728 181.049 97.9823 180.924 97.7593 180.675C97.5379 180.426 97.4272 180.097 97.4272 179.687V179.655ZM97.8813 179.708C97.8813 180.001 97.9489 180.237 98.084 180.414C98.2207 180.591 98.403 180.68 98.6309 180.68C98.8604 180.68 99.0426 180.591 99.1777 180.412C99.3128 180.231 99.3804 179.979 99.3804 179.655C99.3804 179.365 99.3112 179.131 99.1729 178.952C99.0361 178.771 98.8538 178.681 98.626 178.681C98.403 178.681 98.2231 178.769 98.0864 178.947C97.9497 179.124 97.8813 179.378 97.8813 179.708ZM101.011 177.719V178.358H101.504V178.708H101.011V180.346C101.011 180.451 101.033 180.531 101.077 180.585C101.121 180.637 101.196 180.663 101.302 180.663C101.354 180.663 101.425 180.653 101.517 180.634V181C101.398 181.033 101.282 181.049 101.17 181.049C100.968 181.049 100.816 180.988 100.713 180.866C100.611 180.744 100.56 180.57 100.56 180.346V178.708H100.079V178.358H100.56V177.719H101.011ZM103.13 181.049C102.772 181.049 102.481 180.932 102.256 180.697C102.032 180.461 101.919 180.146 101.919 179.752V179.669C101.919 179.407 101.969 179.174 102.068 178.969C102.169 178.762 102.309 178.601 102.488 178.485C102.669 178.368 102.864 178.31 103.074 178.31C103.418 178.31 103.685 178.423 103.875 178.649C104.065 178.875 104.161 179.199 104.161 179.621V179.809H102.371C102.378 180.069 102.453 180.28 102.598 180.441C102.745 180.6 102.93 180.68 103.155 180.68C103.314 180.68 103.449 180.648 103.56 180.583C103.671 180.517 103.768 180.431 103.851 180.324L104.126 180.539C103.905 180.879 103.573 181.049 103.13 181.049ZM103.074 178.681C102.892 178.681 102.739 178.747 102.615 178.881C102.492 179.013 102.415 179.198 102.386 179.438H103.709V179.403C103.696 179.174 103.634 178.996 103.523 178.871C103.413 178.744 103.263 178.681 103.074 178.681ZM108.162 179.708C108.162 180.112 108.069 180.437 107.884 180.683C107.698 180.927 107.449 181.049 107.137 181.049C106.803 181.049 106.545 180.931 106.363 180.695L106.341 181H105.926V177.25H106.377V178.649C106.56 178.423 106.811 178.31 107.132 178.31C107.452 178.31 107.704 178.431 107.886 178.673C108.07 178.916 108.162 179.248 108.162 179.669V179.708ZM107.71 179.657C107.71 179.35 107.651 179.112 107.532 178.944C107.413 178.777 107.243 178.693 107.02 178.693C106.722 178.693 106.508 178.831 106.377 179.108V180.25C106.516 180.527 106.731 180.666 107.024 180.666C107.241 180.666 107.409 180.582 107.53 180.414C107.65 180.246 107.71 179.994 107.71 179.657ZM110.364 180.739C110.188 180.945 109.931 181.049 109.59 181.049C109.309 181.049 109.094 180.967 108.946 180.805C108.799 180.64 108.725 180.398 108.724 180.077V178.358H109.175V180.065C109.175 180.465 109.338 180.666 109.664 180.666C110.009 180.666 110.238 180.537 110.352 180.28V178.358H110.804V181H110.374L110.364 180.739ZM112.105 177.719V178.358H112.598V178.708H112.105V180.346C112.105 180.451 112.127 180.531 112.171 180.585C112.215 180.637 112.29 180.663 112.396 180.663C112.448 180.663 112.519 180.653 112.61 180.634V181C112.492 181.033 112.376 181.049 112.264 181.049C112.062 181.049 111.91 180.988 111.807 180.866C111.705 180.744 111.653 180.57 111.653 180.346V178.708H111.172V178.358H111.653V177.719H112.105ZM113.741 177.719V178.358H114.234V178.708H113.741V180.346C113.741 180.451 113.763 180.531 113.807 180.585C113.851 180.637 113.925 180.663 114.031 180.663C114.083 180.663 114.155 180.653 114.246 180.634V181C114.127 181.033 114.012 181.049 113.899 181.049C113.698 181.049 113.545 180.988 113.443 180.866C113.34 180.744 113.289 180.57 113.289 180.346V178.708H112.808V178.358H113.289V177.719H113.741ZM114.595 179.655C114.595 179.396 114.646 179.163 114.747 178.957C114.849 178.75 114.991 178.59 115.171 178.478C115.354 178.366 115.561 178.31 115.794 178.31C116.154 178.31 116.444 178.434 116.666 178.683C116.889 178.932 117 179.263 117 179.677V179.708C117 179.966 116.95 180.197 116.851 180.402C116.753 180.605 116.613 180.764 116.429 180.878C116.246 180.992 116.036 181.049 115.799 181.049C115.441 181.049 115.15 180.924 114.927 180.675C114.706 180.426 114.595 180.097 114.595 179.687V179.655ZM115.049 179.708C115.049 180.001 115.117 180.237 115.252 180.414C115.389 180.591 115.571 180.68 115.799 180.68C116.028 180.68 116.211 180.591 116.346 180.412C116.481 180.231 116.548 179.979 116.548 179.655C116.548 179.365 116.479 179.131 116.341 178.952C116.204 178.771 116.022 178.681 115.794 178.681C115.571 178.681 115.391 178.769 115.254 178.947C115.118 179.124 115.049 179.378 115.049 179.708ZM117.994 178.358L118.008 178.69C118.21 178.437 118.474 178.31 118.799 178.31C119.358 178.31 119.639 178.625 119.644 179.254V181H119.192V179.252C119.191 179.062 119.147 178.921 119.061 178.83C118.976 178.738 118.843 178.693 118.663 178.693C118.516 178.693 118.388 178.732 118.277 178.81C118.166 178.888 118.08 178.991 118.018 179.118V181H117.566V178.358H117.994Z" fill="black"/>
<path d="M132.386 11.2315C132.514 11.0184 132.445 10.742 132.232 10.6141L128.759 8.53042C128.546 8.40255 128.269 8.47166 128.141 8.68477C128.013 8.89788 128.083 9.1743 128.296 9.30216L131.383 11.1543L129.53 14.2413C129.403 14.4544 129.472 14.7309 129.685 14.8587C129.898 14.9866 130.174 14.9175 130.302 14.7044L132.386 11.2315ZM120.109 14.4366L132.109 11.4366L131.891 10.5634L119.891 13.5634L120.109 14.4366Z" fill="black"/>
</g>
<path d="M29.1975 156.011C29.4445 156.039 29.6671 155.861 29.6946 155.614L30.1433 151.589C30.1709 151.342 29.993 151.119 29.746 151.092C29.499 151.064 29.2764 151.242 29.2489 151.489L28.85 155.067L25.2722 154.668C25.0252 154.641 24.8026 154.819 24.7751 155.066C24.7476 155.313 24.9255 155.535 25.1725 155.563L29.1975 156.011ZM23.6485 149.281L28.8959 155.845L29.5989 155.283L24.3515 148.719L23.6485 149.281Z" fill="black"/>
<path d="M81.9593 170.552C81.7117 170.574 81.5293 170.793 81.5518 171.041L81.9185 175.074C81.941 175.322 82.1599 175.504 82.4074 175.482C82.6549 175.459 82.8373 175.24 82.8148 174.993L82.4889 171.407L86.0741 171.081C86.3216 171.059 86.504 170.84 86.4815 170.593C86.459 170.345 86.2401 170.163 85.9926 170.185L81.9593 170.552ZM88.2881 175.654L82.2881 170.654L81.7119 171.346L87.7119 176.346L88.2881 175.654Z" fill="black"/>
<path d="M62.6913 74.2024C62.9082 74.0811 62.9858 73.8069 62.8645 73.59L60.888 70.055C60.7668 69.8381 60.4926 69.7606 60.2757 69.8818C60.0587 70.0031 59.9812 70.2773 60.1025 70.4942L61.8593 73.6364L58.7171 75.3933C58.5002 75.5146 58.4227 75.7887 58.5439 76.0057C58.6652 76.2226 58.9394 76.3001 59.1563 76.1788L62.6913 74.2024ZM48.8775 70.433L62.3493 74.2426L62.5942 73.3766L49.1225 69.567L48.8775 70.433Z" fill="black"/>
<rect x="1" y="183" width="180" height="31" fill="#EFF7FF"/>
<path opacity="0.5" d="M21.5 204C24.5378 204 27 201.538 27 198.5C27 195.462 24.5378 193 21.5 193C18.4624 193 16 195.462 16 198.5C16 201.538 18.4624 204 21.5 204Z" fill="#58A8F7"/>
<path opacity="0.5" d="M87.5 204C90.5378 204 93 201.538 93 198.5C93 195.462 90.5378 193 87.5 193C84.4624 193 82 195.462 82 198.5C82 201.538 84.4624 204 87.5 204Z" fill="#58A8F7"/>
<path opacity="0.5" d="M153.5 204C156.538 204 159 201.538 159 198.5C159 195.462 156.538 193 153.5 193C150.462 193 148 195.462 148 198.5C148 201.538 150.462 204 153.5 204Z" fill="#58A8F7"/>
<path d="M28.766 200.616C28.5537 200.745 28.4864 201.022 28.6156 201.234L30.7214 204.693C30.8506 204.906 31.1275 204.973 31.3398 204.844C31.5521 204.715 31.6194 204.438 31.4902 204.226L29.6184 201.15L32.6935 199.279C32.9058 199.149 32.9731 198.873 32.8439 198.66C32.7147 198.448 32.4378 198.381 32.2255 198.51L28.766 200.616ZM66.1064 209.563L29.1064 200.563L28.8936 201.437L65.8936 210.437L66.1064 209.563Z" fill="black"/>
<path d="M82.7477 200.996C82.7452 200.747 82.5417 200.548 82.2932 200.55L78.2434 200.59C77.9949 200.593 77.7954 200.796 77.7979 201.045C77.8004 201.293 78.0038 201.493 78.2524 201.49L81.8522 201.454L81.8879 205.054C81.8904 205.303 82.0939 205.502 82.3424 205.5C82.5909 205.497 82.7904 205.294 82.7879 205.045L82.7477 200.996ZM77.3213 206.719L82.619 201.315L81.9763 200.685L76.6787 206.089L77.3213 206.719Z" fill="black"/>
<path d="M146.383 202.237C146.513 202.026 146.448 201.748 146.237 201.617L142.793 199.486C142.582 199.355 142.305 199.42 142.174 199.631C142.043 199.843 142.108 200.12 142.32 200.251L145.381 202.146L143.486 205.207C143.355 205.418 143.42 205.695 143.631 205.826C143.843 205.957 144.12 205.892 144.251 205.68L146.383 202.237ZM112.103 210.438L146.103 202.438L145.897 201.562L111.897 209.562L112.103 210.438Z" fill="black"/>
<path d="M69.8325 212H69.3809V208.25H69.8325V212ZM71.0483 212H70.5967V209.358H71.0483V212ZM70.5601 208.658C70.5601 208.584 70.582 208.523 70.626 208.472C70.6715 208.422 70.7383 208.396 70.8262 208.396C70.9141 208.396 70.9808 208.422 71.0264 208.472C71.0719 208.523 71.0947 208.584 71.0947 208.658C71.0947 208.731 71.0719 208.792 71.0264 208.841C70.9808 208.89 70.9141 208.914 70.8262 208.914C70.7383 208.914 70.6715 208.89 70.626 208.841C70.582 208.792 70.5601 208.731 70.5601 208.658ZM73.3115 211.299C73.3115 211.177 73.2651 211.083 73.1724 211.016C73.0812 210.948 72.9209 210.889 72.6914 210.84C72.4635 210.792 72.2821 210.733 72.147 210.665C72.0135 210.596 71.9142 210.515 71.8491 210.42C71.7856 210.326 71.7539 210.214 71.7539 210.083C71.7539 209.867 71.8451 209.684 72.0273 209.534C72.2113 209.384 72.4456 209.31 72.7305 209.31C73.0299 209.31 73.2725 209.387 73.458 209.542C73.6452 209.696 73.7388 209.894 73.7388 210.135H73.2847C73.2847 210.011 73.2318 209.904 73.126 209.815C73.0218 209.725 72.89 209.681 72.7305 209.681C72.5661 209.681 72.4375 209.716 72.3447 209.788C72.252 209.86 72.2056 209.953 72.2056 210.069C72.2056 210.178 72.2487 210.26 72.335 210.315C72.4212 210.371 72.5767 210.424 72.8013 210.474C73.0275 210.525 73.2106 210.585 73.3506 210.655C73.4906 210.725 73.5939 210.809 73.6606 210.909C73.729 211.006 73.7632 211.126 73.7632 211.268C73.7632 211.504 73.6688 211.693 73.48 211.836C73.2912 211.978 73.0462 212.049 72.7451 212.049C72.5335 212.049 72.3464 212.011 72.1836 211.937C72.0208 211.862 71.8931 211.757 71.8003 211.624C71.7091 211.489 71.6636 211.343 71.6636 211.187H72.1152C72.1234 211.338 72.1836 211.459 72.2959 211.548C72.4098 211.636 72.5596 211.68 72.7451 211.68C72.916 211.68 73.0527 211.646 73.1553 211.578C73.2594 211.508 73.3115 211.415 73.3115 211.299ZM74.9644 208.719V209.358H75.4575V209.708H74.9644V211.346C74.9644 211.451 74.9863 211.531 75.0303 211.585C75.0742 211.637 75.1491 211.663 75.2549 211.663C75.307 211.663 75.3786 211.653 75.4697 211.634V212C75.3509 212.033 75.2354 212.049 75.123 212.049C74.9212 212.049 74.769 211.988 74.6665 211.866C74.564 211.744 74.5127 211.57 74.5127 211.346V209.708H74.0317V209.358H74.5127V208.719H74.9644ZM80.0327 210.337C80.0327 210.686 79.9741 210.99 79.8569 211.25C79.7397 211.509 79.5737 211.707 79.3589 211.844C79.144 211.98 78.8934 212.049 78.6069 212.049C78.327 212.049 78.0788 211.98 77.8623 211.844C77.6458 211.705 77.4774 211.509 77.3569 211.255C77.2381 211 77.1771 210.704 77.1738 210.369V210.113C77.1738 209.771 77.2332 209.469 77.3521 209.207C77.4709 208.945 77.6385 208.745 77.855 208.606C78.0731 208.466 78.3221 208.396 78.6021 208.396C78.8869 208.396 79.1375 208.466 79.354 208.604C79.5721 208.741 79.7397 208.94 79.8569 209.202C79.9741 209.463 80.0327 209.766 80.0327 210.113V210.337ZM79.5664 210.108C79.5664 209.686 79.4818 209.363 79.3125 209.139C79.1432 208.912 78.9064 208.799 78.6021 208.799C78.3058 208.799 78.0723 208.912 77.9014 209.139C77.7321 209.363 77.645 209.676 77.6401 210.076V210.337C77.6401 210.746 77.7256 211.067 77.8965 211.302C78.069 211.535 78.3058 211.651 78.6069 211.651C78.9097 211.651 79.144 211.541 79.3101 211.321C79.4761 211.1 79.5615 210.783 79.5664 210.372V210.108ZM80.8872 212V209.708H80.4697V209.358H80.8872V209.087C80.8872 208.804 80.9629 208.585 81.1143 208.431C81.2656 208.276 81.4797 208.199 81.7563 208.199C81.8605 208.199 81.9639 208.213 82.0664 208.24L82.042 208.606C81.9655 208.592 81.8841 208.584 81.7979 208.584C81.6514 208.584 81.5382 208.628 81.4585 208.714C81.3787 208.799 81.3389 208.921 81.3389 209.08V209.358H81.9028V209.708H81.3389V212H80.8872ZM84.3198 208.445L85.4819 211.346L86.644 208.445H87.252V212H86.7832V210.616L86.8271 209.122L85.6602 212H85.3013L84.1367 209.129L84.1831 210.616V212H83.7144V208.445H84.3198ZM88.873 211.338L89.4883 209.358H89.9717L88.9097 212.408C88.7453 212.847 88.484 213.067 88.126 213.067L88.0405 213.06L87.8721 213.028V212.662L87.9941 212.671C88.1471 212.671 88.266 212.64 88.3506 212.579C88.4368 212.517 88.5076 212.404 88.563 212.239L88.6631 211.971L87.7207 209.358H88.2139L88.873 211.338ZM92.2275 210.003H92.5669C92.7801 210 92.9478 209.944 93.0698 209.834C93.1919 209.725 93.2529 209.578 93.2529 209.393C93.2529 208.976 93.0454 208.768 92.6304 208.768C92.4351 208.768 92.2788 208.824 92.1616 208.936C92.0461 209.047 91.9883 209.194 91.9883 209.378H91.5366C91.5366 209.096 91.6392 208.863 91.8442 208.677C92.0509 208.49 92.313 208.396 92.6304 208.396C92.9657 208.396 93.2285 208.485 93.4189 208.663C93.6094 208.84 93.7046 209.087 93.7046 209.402C93.7046 209.557 93.6541 209.707 93.5532 209.852C93.4539 209.996 93.318 210.105 93.1455 210.176C93.3408 210.238 93.4914 210.341 93.5972 210.484C93.7046 210.627 93.7583 210.802 93.7583 211.009C93.7583 211.328 93.6541 211.581 93.4458 211.768C93.2375 211.955 92.9665 212.049 92.6328 212.049C92.2992 212.049 92.0273 211.958 91.8174 211.778C91.609 211.597 91.5049 211.359 91.5049 211.062H91.959C91.959 211.25 92.02 211.399 92.1421 211.512C92.2642 211.624 92.4277 211.68 92.6328 211.68C92.8509 211.68 93.0177 211.623 93.1333 211.509C93.2489 211.395 93.3066 211.232 93.3066 211.019C93.3066 210.812 93.2432 210.653 93.1162 210.542C92.9893 210.432 92.8062 210.375 92.5669 210.372H92.2275V210.003ZM98.4507 210.337C98.4507 210.681 98.3962 210.977 98.2871 211.226C98.1781 211.473 98.0251 211.667 97.8281 211.807L98.4629 212.305L98.1431 212.601L97.3936 212.005C97.2764 212.034 97.1527 212.049 97.0225 212.049C96.7425 212.049 96.4943 211.98 96.2778 211.844C96.0614 211.705 95.8929 211.509 95.7725 211.255C95.6536 211 95.5926 210.704 95.5894 210.369V210.113C95.5894 209.771 95.6488 209.469 95.7676 209.207C95.8864 208.945 96.054 208.745 96.2705 208.606C96.4886 208.466 96.7376 208.396 97.0176 208.396C97.304 208.396 97.5555 208.466 97.772 208.604C97.9901 208.742 98.1577 208.942 98.2749 209.202C98.3921 209.461 98.4507 209.764 98.4507 210.11V210.337ZM97.9819 210.108C97.9819 209.69 97.8981 209.367 97.7305 209.141C97.5645 208.913 97.3268 208.799 97.0176 208.799C96.723 208.799 96.4902 208.912 96.3193 209.139C96.1501 209.363 96.063 209.676 96.0581 210.076V210.337C96.0581 210.744 96.1427 211.065 96.312 211.299C96.4829 211.534 96.7197 211.651 97.0225 211.651C97.3252 211.651 97.5596 211.541 97.7256 211.321C97.8916 211.1 97.9771 210.783 97.9819 210.372V210.108ZM100.733 211.739C100.558 211.945 100.3 212.049 99.9595 212.049C99.6779 212.049 99.4631 211.967 99.3149 211.805C99.1685 211.64 99.0944 211.398 99.0928 211.077V209.358H99.5444V211.065C99.5444 211.465 99.7072 211.666 100.033 211.666C100.378 211.666 100.607 211.537 100.721 211.28V209.358H101.173V212H100.743L100.733 211.739ZM101.742 210.655C101.742 210.396 101.792 210.163 101.893 209.957C101.996 209.75 102.137 209.59 102.318 209.478C102.5 209.366 102.708 209.31 102.94 209.31C103.3 209.31 103.591 209.434 103.812 209.683C104.035 209.932 104.146 210.263 104.146 210.677V210.708C104.146 210.966 104.097 211.197 103.998 211.402C103.9 211.605 103.759 211.764 103.575 211.878C103.393 211.992 103.183 212.049 102.945 212.049C102.587 212.049 102.297 211.924 102.074 211.675C101.852 211.426 101.742 211.097 101.742 210.687V210.655ZM102.196 210.708C102.196 211.001 102.263 211.237 102.398 211.414C102.535 211.591 102.717 211.68 102.945 211.68C103.175 211.68 103.357 211.591 103.492 211.412C103.627 211.231 103.695 210.979 103.695 210.655C103.695 210.365 103.626 210.131 103.487 209.952C103.351 209.771 103.168 209.681 102.94 209.681C102.717 209.681 102.538 209.769 102.401 209.947C102.264 210.124 102.196 210.378 102.196 210.708ZM105.326 208.719V209.358H105.819V209.708H105.326V211.346C105.326 211.451 105.348 211.531 105.392 211.585C105.436 211.637 105.51 211.663 105.616 211.663C105.668 211.663 105.74 211.653 105.831 211.634V212C105.712 212.033 105.597 212.049 105.484 212.049C105.283 212.049 105.13 211.988 105.028 211.866C104.925 211.744 104.874 211.57 104.874 211.346V209.708H104.393V209.358H104.874V208.719H105.326ZM107.445 212.049C107.087 212.049 106.795 211.932 106.571 211.697C106.346 211.461 106.234 211.146 106.234 210.752V210.669C106.234 210.407 106.284 210.174 106.383 209.969C106.484 209.762 106.624 209.601 106.803 209.485C106.983 209.368 107.179 209.31 107.389 209.31C107.732 209.31 107.999 209.423 108.189 209.649C108.38 209.875 108.475 210.199 108.475 210.621V210.809H106.686C106.692 211.069 106.768 211.28 106.913 211.441C107.059 211.6 107.245 211.68 107.469 211.68C107.629 211.68 107.764 211.648 107.875 211.583C107.985 211.517 108.082 211.431 108.165 211.324L108.441 211.539C108.22 211.879 107.888 212.049 107.445 212.049ZM107.389 209.681C107.206 209.681 107.053 209.747 106.93 209.881C106.806 210.013 106.729 210.198 106.7 210.438H108.023V210.403C108.01 210.174 107.949 209.996 107.838 209.871C107.727 209.744 107.577 209.681 107.389 209.681ZM110.538 211.299C110.538 211.177 110.492 211.083 110.399 211.016C110.308 210.948 110.147 210.889 109.918 210.84C109.69 210.792 109.509 210.733 109.374 210.665C109.24 210.596 109.141 210.515 109.076 210.42C109.012 210.326 108.98 210.214 108.98 210.083C108.98 209.867 109.072 209.684 109.254 209.534C109.438 209.384 109.672 209.31 109.957 209.31C110.257 209.31 110.499 209.387 110.685 209.542C110.872 209.696 110.965 209.894 110.965 210.135H110.511C110.511 210.011 110.458 209.904 110.353 209.815C110.248 209.725 110.117 209.681 109.957 209.681C109.793 209.681 109.664 209.716 109.571 209.788C109.479 209.86 109.432 209.953 109.432 210.069C109.432 210.178 109.475 210.26 109.562 210.315C109.648 210.371 109.803 210.424 110.028 210.474C110.254 210.525 110.437 210.585 110.577 210.655C110.717 210.725 110.82 210.809 110.887 210.909C110.956 211.006 110.99 211.126 110.99 211.268C110.99 211.504 110.895 211.693 110.707 211.836C110.518 211.978 110.273 212.049 109.972 212.049C109.76 212.049 109.573 212.011 109.41 211.937C109.247 211.862 109.12 211.757 109.027 211.624C108.936 211.489 108.89 211.343 108.89 211.187H109.342C109.35 211.338 109.41 211.459 109.522 211.548C109.636 211.636 109.786 211.68 109.972 211.68C110.143 211.68 110.279 211.646 110.382 211.578C110.486 211.508 110.538 211.415 110.538 211.299Z" fill="black"/>
<defs>
<filter id="filter0_d" x="56" y="39" width="58" height="15.9565" filterUnits="userSpaceOnUse" color-interpolation-filters="sRGB">
<feFlood flood-opacity="0" result="BackgroundImageFix"/>
<feColorMatrix in="SourceAlpha" type="matrix" values="0 0 0 0 0 0 0 0 0 0 0 0 0 0 0 0 0 0 127 0" result="hardAlpha"/>
<feOffset dy="4"/>
<feGaussianBlur stdDeviation="2"/>
<feComposite in2="hardAlpha" operator="out"/>
<feColorMatrix type="matrix" values="0 0 0 0 0 0 0 0 0 0 0 0 0 0 0 0 0 0 0.25 0"/>
<feBlend mode="normal" in2="BackgroundImageFix" result="effect1_dropShadow"/>
<feBlend mode="normal" in="SourceGraphic" in2="effect1_dropShadow" result="shape"/>
</filter>
<filter id="filter1_d" x="60" y="49" width="47" height="12.9728" filterUnits="userSpaceOnUse" color-interpolation-filters="sRGB">
<feFlood flood-opacity="0" result="BackgroundImageFix"/>
<feColorMatrix in="SourceAlpha" type="matrix" values="0 0 0 0 0 0 0 0 0 0 0 0 0 0 0 0 0 0 127 0" result="hardAlpha"/>
<feOffset dy="4"/>
<feGaussianBlur stdDeviation="2"/>
<feComposite in2="hardAlpha" operator="out"/>
<feColorMatrix type="matrix" values="0 0 0 0 0 0 0 0 0 0 0 0 0 0 0 0 0 0 0.25 0"/>
<feBlend mode="normal" in2="BackgroundImageFix" result="effect1_dropShadow"/>
<feBlend mode="normal" in="SourceGraphic" in2="effect1_dropShadow" result="shape"/>
</filter>
<clipPath id="clip0">
<rect width="180" height="183" fill="white" transform="translate(0.929108 0.579132)"/>
</clipPath>
</defs>
</svg>
