<svg width="181" height="184" viewBox="0 0 181 184" fill="none" xmlns="http://www.w3.org/2000/svg">
<g clip-path="url(#clip0)">
<path d="M0.929077 3.57913C0.929077 1.92227 2.27223 0.579132 3.92908 0.579132H177.929C179.586 0.579132 180.929 1.92228 180.929 3.57913V183.579H0.929077V3.57913Z" fill="#EFF7FF"/>
<path opacity="0.2" d="M0.929077 3.57913C0.929077 1.92227 2.27223 0.579132 3.92908 0.579132H177.929C179.586 0.579132 180.929 1.92228 180.929 3.57913V15.4976H0.929077V3.57913Z" fill="#EFF7FF"/>
<path opacity="0.5" fill-rule="evenodd" clip-rule="evenodd" d="M157.5 10.9728C158.881 10.9728 160 9.85962 160 8.48641C160 7.11321 158.881 6 157.5 6C156.119 6 155 7.11321 155 8.48641C155 9.85962 156.119 10.9728 157.5 10.9728ZM165.5 10.9728C166.881 10.9728 168 9.85962 168 8.48641C168 7.11321 166.881 6 165.5 6C164.119 6 163 7.11321 163 8.48641C163 9.85962 164.119 10.9728 165.5 10.9728ZM176 8.48641C176 9.85962 174.881 10.9728 173.5 10.9728C172.119 10.9728 171 9.85962 171 8.48641C171 7.11321 172.119 6 173.5 6C174.881 6 176 7.11321 176 8.48641Z" fill="#0D87FF"/>
<path opacity="0.5" fill-rule="evenodd" clip-rule="evenodd" d="M134.5 10.9728C135.881 10.9728 137 9.85962 137 8.48641C137 7.11321 135.881 6 134.5 6C133.119 6 132 7.11321 132 8.48641C132 9.85962 133.119 10.9728 134.5 10.9728ZM142.5 10.9728C143.881 10.9728 145 9.85962 145 8.48641C145 7.11321 143.881 6 142.5 6C141.119 6 140 7.11321 140 8.48641C140 9.85962 141.119 10.9728 142.5 10.9728ZM153 8.48641C153 9.85962 151.881 10.9728 150.5 10.9728C149.119 10.9728 148 9.85962 148 8.48641C148 7.11321 149.119 6 150.5 6C151.881 6 153 7.11321 153 8.48641Z" fill="#0D87FF"/>
<path opacity="0.498717" d="M33.5 91.5H61.5C62.6046 91.5 63.5 92.3954 63.5 93.5C63.5 94.6046 62.6046 95.5 61.5 95.5H33.5C32.3954 95.5 31.5 94.6046 31.5 93.5C31.5 92.3954 32.3954 91.5 33.5 91.5Z" fill="#58A8F7" stroke="black"/>
<path opacity="0.498717" d="M11.5 71.5H87.5V75.4728H11.5V71.5Z" fill="#58A8F7" stroke="black"/>
<path opacity="0.5" d="M10.5 14C13.5378 14 16 11.5376 16 8.5C16 5.46247 13.5378 3 10.5 3C7.46241 3 5 5.46247 5 8.5C5 11.5376 7.46241 14 10.5 14Z" fill="#58A8F7"/>
<path d="M164.408 43H98.5918C96.0558 43 94 44.1576 94 45.5855V106.415C94 107.842 96.0558 109 98.5918 109H164.408C166.944 109 169 107.842 169 106.415V45.5855C169 44.1576 166.944 43 164.408 43Z" fill="white"/>
<path opacity="0.498717" d="M164 50.9561H99V55.9289H164V50.9561Z" fill="#58A8F7"/>
<path opacity="0.498717" d="M152.333 60.9021H99V65.8749H152.333V60.9021Z" fill="#58A8F7"/>
<path opacity="0.498717" d="M157.333 70.8481H99V75.8209H157.333V70.8481Z" fill="#58A8F7"/>
<path opacity="0.498717" d="M79.3333 51H21V55.9728H79.3333V51Z" fill="#58A8F7"/>
<path opacity="0.498717" d="M140.667 80.7931H99V85.7659H140.667V80.7931Z" fill="#58A8F7"/>
<path opacity="0.498717" d="M140.667 100.685H99V105.658H140.667V100.685Z" fill="#58A8F7"/>
<path opacity="0.498717" d="M160.667 90.7391H99V95.7119H160.667V90.7391Z" fill="#58A8F7"/>
<path d="M125.127 46.3374C125.127 46.6808 125.073 46.9771 124.964 47.2261C124.855 47.4735 124.702 47.6672 124.505 47.8071L125.14 48.3052L124.82 48.6006L124.07 48.0049C123.953 48.0342 123.829 48.0488 123.699 48.0488C123.419 48.0488 123.171 47.9805 122.955 47.8438C122.738 47.7054 122.57 47.5093 122.449 47.2554C122.33 46.9998 122.269 46.7044 122.266 46.3691V46.1128C122.266 45.771 122.326 45.4691 122.444 45.207C122.563 44.945 122.731 44.7448 122.947 44.6064C123.165 44.4665 123.414 44.3965 123.694 44.3965C123.981 44.3965 124.232 44.4657 124.449 44.604C124.667 44.7424 124.834 44.9417 124.952 45.2021C125.069 45.4609 125.127 45.7637 125.127 46.1104V46.3374ZM124.659 46.1079C124.659 45.6896 124.575 45.3674 124.407 45.1411C124.241 44.9132 124.004 44.7993 123.694 44.7993C123.4 44.7993 123.167 44.9124 122.996 45.1387C122.827 45.3633 122.74 45.6758 122.735 46.0762V46.3374C122.735 46.7443 122.819 47.0649 122.989 47.2993C123.16 47.5337 123.396 47.6509 123.699 47.6509C124.002 47.6509 124.236 47.541 124.402 47.3213C124.568 47.0999 124.654 46.7834 124.659 46.3716V46.1079ZM127.41 47.7388C127.234 47.9455 126.976 48.0488 126.636 48.0488C126.355 48.0488 126.14 47.9674 125.992 47.8047C125.845 47.6403 125.771 47.3978 125.77 47.0771V45.3584H126.221V47.0649C126.221 47.4653 126.384 47.6655 126.709 47.6655C127.055 47.6655 127.284 47.5369 127.398 47.2798V45.3584H127.85V48H127.42L127.41 47.7388ZM128.418 46.6548C128.418 46.396 128.469 46.1632 128.57 45.9565C128.672 45.7498 128.814 45.5903 128.995 45.478C129.177 45.3657 129.384 45.3096 129.617 45.3096C129.977 45.3096 130.267 45.4341 130.489 45.6831C130.712 45.9321 130.823 46.2633 130.823 46.6768V46.7085C130.823 46.9657 130.774 47.1968 130.674 47.4019C130.577 47.6053 130.436 47.764 130.252 47.8779C130.07 47.9919 129.86 48.0488 129.622 48.0488C129.264 48.0488 128.973 47.9243 128.75 47.6753C128.529 47.4263 128.418 47.0967 128.418 46.6865V46.6548ZM128.873 46.7085C128.873 47.0015 128.94 47.2367 129.075 47.4141C129.212 47.5915 129.394 47.6802 129.622 47.6802C129.852 47.6802 130.034 47.5907 130.169 47.4116C130.304 47.231 130.372 46.9787 130.372 46.6548C130.372 46.3651 130.302 46.1307 130.164 45.9517C130.027 45.771 129.845 45.6807 129.617 45.6807C129.394 45.6807 129.214 45.7694 129.078 45.9468C128.941 46.1242 128.873 46.3781 128.873 46.7085ZM132.002 44.7188V45.3584H132.496V45.7075H132.002V47.3457C132.002 47.4515 132.024 47.5312 132.068 47.585C132.112 47.637 132.187 47.6631 132.293 47.6631C132.345 47.6631 132.417 47.6533 132.508 47.6338V48C132.389 48.0326 132.273 48.0488 132.161 48.0488C131.959 48.0488 131.807 47.9878 131.705 47.8657C131.602 47.7437 131.551 47.5703 131.551 47.3457V45.7075H131.07V45.3584H131.551V44.7188H132.002ZM134.122 48.0488C133.764 48.0488 133.472 47.9316 133.248 47.6973C133.023 47.4613 132.911 47.1463 132.911 46.7524V46.6694C132.911 46.4074 132.96 46.1738 133.06 45.9688C133.16 45.762 133.3 45.6009 133.479 45.4854C133.66 45.3682 133.855 45.3096 134.065 45.3096C134.409 45.3096 134.676 45.4227 134.866 45.6489C135.057 45.8752 135.152 46.1991 135.152 46.6206V46.8086H133.362C133.369 47.069 133.444 47.2798 133.589 47.4409C133.736 47.6004 133.921 47.6802 134.146 47.6802C134.306 47.6802 134.441 47.6476 134.551 47.5825C134.662 47.5174 134.759 47.4312 134.842 47.3237L135.118 47.5386C134.896 47.8787 134.564 48.0488 134.122 48.0488ZM134.065 45.6807C133.883 45.6807 133.73 45.7474 133.606 45.8809C133.483 46.0127 133.406 46.1982 133.377 46.4375H134.7V46.4033C134.687 46.1738 134.625 45.9964 134.515 45.8711C134.404 45.7441 134.254 45.6807 134.065 45.6807ZM137.215 47.2993C137.215 47.1772 137.168 47.0828 137.076 47.0161C136.985 46.9478 136.824 46.8892 136.595 46.8403C136.367 46.7915 136.185 46.7329 136.05 46.6646C135.917 46.5962 135.818 46.5148 135.752 46.4204C135.689 46.326 135.657 46.2137 135.657 46.0835C135.657 45.867 135.748 45.6839 135.931 45.5342C136.115 45.3844 136.349 45.3096 136.634 45.3096C136.933 45.3096 137.176 45.3869 137.361 45.5415C137.549 45.6961 137.642 45.8939 137.642 46.1348H137.188C137.188 46.0111 137.135 45.9045 137.029 45.8149C136.925 45.7254 136.793 45.6807 136.634 45.6807C136.469 45.6807 136.341 45.7165 136.248 45.7881C136.155 45.8597 136.109 45.9533 136.109 46.0688C136.109 46.1779 136.152 46.2601 136.238 46.3154C136.325 46.3708 136.48 46.4237 136.705 46.4741C136.931 46.5246 137.114 46.5848 137.254 46.6548C137.394 46.7248 137.497 46.8094 137.564 46.9087C137.632 47.0063 137.667 47.126 137.667 47.2676C137.667 47.5036 137.572 47.6932 137.383 47.8364C137.194 47.978 136.95 48.0488 136.648 48.0488C136.437 48.0488 136.25 48.0114 136.087 47.9365C135.924 47.8617 135.796 47.7575 135.704 47.624C135.612 47.4889 135.567 47.3433 135.567 47.187H136.019C136.027 47.3384 136.087 47.4588 136.199 47.5483C136.313 47.6362 136.463 47.6802 136.648 47.6802C136.819 47.6802 136.956 47.646 137.059 47.5776C137.163 47.5076 137.215 47.4149 137.215 47.2993Z" fill="black"/>
<path d="M105.375 9.07227H103.886L103.552 10H103.068L104.426 6.44531H104.836L106.196 10H105.715L105.375 9.07227ZM104.028 8.68652H105.236L104.631 7.02393L104.028 8.68652ZM108.835 8.7085C108.835 9.11051 108.743 9.43441 108.559 9.68018C108.375 9.92594 108.126 10.0488 107.812 10.0488C107.491 10.0488 107.239 9.9471 107.055 9.74365V11.0156H106.604V7.3584H107.016L107.038 7.65137C107.222 7.4235 107.478 7.30957 107.805 7.30957C108.122 7.30957 108.373 7.4292 108.557 7.66846C108.742 7.90771 108.835 8.24056 108.835 8.66699V8.7085ZM108.383 8.65723C108.383 8.35938 108.32 8.12419 108.193 7.95166C108.066 7.77913 107.892 7.69287 107.67 7.69287C107.397 7.69287 107.192 7.81413 107.055 8.05664V9.31885C107.19 9.55973 107.397 9.68018 107.675 9.68018C107.892 9.68018 108.063 9.59473 108.19 9.42383C108.319 9.2513 108.383 8.99577 108.383 8.65723ZM109.902 10H109.45V7.3584H109.902V10ZM109.414 6.65771C109.414 6.58447 109.436 6.52262 109.479 6.47217C109.525 6.42171 109.592 6.39648 109.68 6.39648C109.768 6.39648 109.834 6.42171 109.88 6.47217C109.925 6.52262 109.948 6.58447 109.948 6.65771C109.948 6.73096 109.925 6.79199 109.88 6.84082C109.834 6.88965 109.768 6.91406 109.68 6.91406C109.592 6.91406 109.525 6.88965 109.479 6.84082C109.436 6.79199 109.414 6.73096 109.414 6.65771ZM114.099 8.7085C114.099 9.11051 114.007 9.43441 113.823 9.68018C113.639 9.92594 113.39 10.0488 113.076 10.0488C112.755 10.0488 112.503 9.9471 112.319 9.74365V11.0156H111.867V7.3584H112.28L112.302 7.65137C112.486 7.4235 112.741 7.30957 113.068 7.30957C113.386 7.30957 113.636 7.4292 113.82 7.66846C114.006 7.90771 114.099 8.24056 114.099 8.66699V8.7085ZM113.647 8.65723C113.647 8.35938 113.583 8.12419 113.457 7.95166C113.33 7.77913 113.155 7.69287 112.934 7.69287C112.661 7.69287 112.456 7.81413 112.319 8.05664V9.31885C112.454 9.55973 112.661 9.68018 112.939 9.68018C113.155 9.68018 113.327 9.59473 113.454 9.42383C113.583 9.2513 113.647 8.99577 113.647 8.65723ZM116.306 10C116.28 9.94792 116.258 9.85514 116.242 9.72168C116.032 9.93978 115.782 10.0488 115.49 10.0488C115.23 10.0488 115.016 9.97559 114.848 9.8291C114.682 9.68099 114.599 9.49382 114.599 9.26758C114.599 8.99251 114.703 8.7793 114.912 8.62793C115.122 8.47493 115.416 8.39844 115.795 8.39844H116.235V8.19092C116.235 8.03304 116.188 7.90771 116.093 7.81494C115.999 7.72054 115.86 7.67334 115.676 7.67334C115.515 7.67334 115.38 7.71403 115.271 7.79541C115.161 7.87679 115.107 7.97526 115.107 8.09082H114.653C114.653 7.95898 114.699 7.83203 114.792 7.70996C114.886 7.58626 115.013 7.48861 115.173 7.41699C115.334 7.34538 115.511 7.30957 115.703 7.30957C116.007 7.30957 116.245 7.38607 116.418 7.53906C116.59 7.69043 116.68 7.89958 116.687 8.1665V9.38232C116.687 9.62484 116.717 9.81771 116.779 9.96094V10H116.306ZM115.556 9.65576C115.698 9.65576 115.832 9.61914 115.959 9.5459C116.086 9.47266 116.178 9.37744 116.235 9.26025V8.71826H115.881C115.327 8.71826 115.051 8.88021 115.051 9.2041C115.051 9.3457 115.098 9.45638 115.192 9.53613C115.287 9.61589 115.408 9.65576 115.556 9.65576ZM117.287 8.65723C117.287 8.24544 117.382 7.91829 117.573 7.67578C117.763 7.43164 118.015 7.30957 118.33 7.30957C118.652 7.30957 118.903 7.4235 119.084 7.65137L119.106 7.3584H119.519V9.93652C119.519 10.2783 119.417 10.5477 119.213 10.7446C119.012 10.9416 118.74 11.04 118.398 11.04C118.208 11.04 118.021 10.9993 117.839 10.918C117.657 10.8366 117.517 10.7251 117.421 10.5835L117.656 10.3125C117.849 10.5518 118.086 10.6714 118.366 10.6714C118.586 10.6714 118.757 10.6095 118.879 10.4858C119.003 10.3621 119.064 10.188 119.064 9.96338V9.73633C118.884 9.94466 118.637 10.0488 118.325 10.0488C118.015 10.0488 117.765 9.92432 117.573 9.67529C117.382 9.42627 117.287 9.08691 117.287 8.65723ZM117.741 8.7085C117.741 9.00635 117.802 9.24072 117.924 9.41162C118.046 9.58089 118.217 9.66553 118.437 9.66553C118.722 9.66553 118.931 9.53613 119.064 9.27734V8.07129C118.926 7.81901 118.719 7.69287 118.442 7.69287C118.222 7.69287 118.05 7.77832 117.927 7.94922C117.803 8.12012 117.741 8.37321 117.741 8.7085ZM121.298 10.0488C120.94 10.0488 120.649 9.93164 120.424 9.69727C120.2 9.46126 120.087 9.14632 120.087 8.75244V8.66943C120.087 8.40739 120.137 8.17383 120.236 7.96875C120.337 7.76204 120.477 7.60091 120.656 7.48535C120.837 7.36816 121.032 7.30957 121.242 7.30957C121.586 7.30957 121.853 7.42269 122.043 7.64893C122.233 7.87516 122.329 8.19906 122.329 8.62061V8.80859H120.539C120.546 9.06901 120.621 9.27979 120.766 9.44092C120.913 9.60042 121.098 9.68018 121.323 9.68018C121.482 9.68018 121.617 9.64762 121.728 9.58252C121.839 9.51742 121.936 9.43115 122.019 9.32373L122.294 9.53857C122.073 9.87874 121.741 10.0488 121.298 10.0488ZM121.242 7.68066C121.06 7.68066 120.907 7.7474 120.783 7.88086C120.66 8.0127 120.583 8.19824 120.554 8.4375H121.877V8.40332C121.864 8.17383 121.802 7.99642 121.691 7.87109C121.581 7.74414 121.431 7.68066 121.242 7.68066Z" fill="black"/>
<path d="M30.9727 101C30.9466 100.948 30.9255 100.855 30.9092 100.722C30.6992 100.94 30.4486 101.049 30.1572 101.049C29.8968 101.049 29.6828 100.976 29.5151 100.829C29.3491 100.681 29.2661 100.494 29.2661 100.268C29.2661 99.9925 29.3703 99.7793 29.5786 99.6279C29.7886 99.4749 30.0832 99.3984 30.4624 99.3984H30.9019V99.1909C30.9019 99.033 30.8547 98.9077 30.7603 98.8149C30.6659 98.7205 30.5267 98.6733 30.3428 98.6733C30.1816 98.6733 30.0465 98.714 29.9375 98.7954C29.8285 98.8768 29.7739 98.9753 29.7739 99.0908H29.3198C29.3198 98.959 29.3662 98.832 29.459 98.71C29.5534 98.5863 29.6803 98.4886 29.8398 98.417C30.001 98.3454 30.1776 98.3096 30.3696 98.3096C30.674 98.3096 30.9124 98.3861 31.085 98.5391C31.2575 98.6904 31.347 98.8996 31.3535 99.1665V100.382C31.3535 100.625 31.3844 100.818 31.4463 100.961V101H30.9727ZM30.2231 100.656C30.3647 100.656 30.499 100.619 30.626 100.546C30.7529 100.473 30.8449 100.377 30.9019 100.26V99.7183H30.5479C29.9945 99.7183 29.7178 99.8802 29.7178 100.204C29.7178 100.346 29.765 100.456 29.8594 100.536C29.9538 100.616 30.075 100.656 30.2231 100.656ZM31.9517 99.6572C31.9517 99.252 32.0477 98.9264 32.2397 98.6807C32.4318 98.4333 32.6833 98.3096 32.9941 98.3096C33.3034 98.3096 33.5483 98.4154 33.729 98.627V97.25H34.1807V101H33.7656L33.7437 100.717C33.563 100.938 33.3115 101.049 32.9893 101.049C32.6833 101.049 32.4334 100.924 32.2397 100.673C32.0477 100.422 31.9517 100.095 31.9517 99.6914V99.6572ZM32.4033 99.7085C32.4033 100.008 32.4652 100.242 32.5889 100.412C32.7126 100.581 32.8835 100.666 33.1016 100.666C33.388 100.666 33.5972 100.537 33.729 100.28V99.0664C33.5939 98.8174 33.3864 98.6929 33.1064 98.6929C32.8851 98.6929 32.7126 98.7783 32.5889 98.9492C32.4652 99.1201 32.4033 99.3732 32.4033 99.7085ZM34.7739 99.6572C34.7739 99.252 34.87 98.9264 35.062 98.6807C35.2541 98.4333 35.5055 98.3096 35.8164 98.3096C36.1257 98.3096 36.3706 98.4154 36.5513 98.627V97.25H37.0029V101H36.5879L36.5659 100.717C36.3853 100.938 36.1338 101.049 35.8115 101.049C35.5055 101.049 35.2557 100.924 35.062 100.673C34.87 100.422 34.7739 100.095 34.7739 99.6914V99.6572ZM35.2256 99.7085C35.2256 100.008 35.2874 100.242 35.4111 100.412C35.5348 100.581 35.7057 100.666 35.9238 100.666C36.2103 100.666 36.4194 100.537 36.5513 100.28V99.0664C36.4162 98.8174 36.2087 98.6929 35.9287 98.6929C35.7074 98.6929 35.5348 98.7783 35.4111 98.9492C35.2874 99.1201 35.2256 99.3732 35.2256 99.7085ZM38.8364 99.6572C38.8364 99.2422 38.9316 98.9142 39.1221 98.6733C39.3125 98.4308 39.568 98.3096 39.8887 98.3096C40.2012 98.3096 40.4478 98.4146 40.6284 98.6245L40.6479 98.3584H41.063V102.016H40.6113V100.756C40.429 100.951 40.1865 101.049 39.8838 101.049C39.5648 101.049 39.3101 100.925 39.1196 100.678C38.9308 100.429 38.8364 100.099 38.8364 99.689V99.6572ZM39.2881 99.7085C39.2881 100.011 39.3516 100.249 39.4785 100.421C39.6071 100.594 39.7796 100.68 39.9961 100.68C40.2646 100.68 40.4697 100.561 40.6113 100.324V99.0298C40.4681 98.797 40.2646 98.6807 40.001 98.6807C39.7829 98.6807 39.6095 98.7677 39.481 98.9419C39.3524 99.1144 39.2881 99.37 39.2881 99.7085ZM43.4189 100.739C43.2432 100.945 42.9852 101.049 42.645 101.049C42.3634 101.049 42.1486 100.967 42.0005 100.805C41.854 100.64 41.7799 100.398 41.7783 100.077V98.3584H42.23V100.065C42.23 100.465 42.3927 100.666 42.7183 100.666C43.0633 100.666 43.2928 100.537 43.4067 100.28V98.3584H43.8584V101H43.4287L43.4189 100.739ZM44.4272 99.6548C44.4272 99.396 44.4777 99.1632 44.5786 98.9565C44.6812 98.7498 44.8228 98.5903 45.0034 98.478C45.1857 98.3657 45.3932 98.3096 45.626 98.3096C45.9857 98.3096 46.2762 98.4341 46.4976 98.6831C46.7205 98.9321 46.832 99.2633 46.832 99.6768V99.7085C46.832 99.9657 46.7824 100.197 46.6831 100.402C46.5854 100.605 46.4447 100.764 46.2607 100.878C46.0785 100.992 45.8685 101.049 45.6309 101.049C45.2728 101.049 44.9823 100.924 44.7593 100.675C44.5379 100.426 44.4272 100.097 44.4272 99.6865V99.6548ZM44.8813 99.7085C44.8813 100.001 44.9489 100.237 45.084 100.414C45.2207 100.591 45.403 100.68 45.6309 100.68C45.8604 100.68 46.0426 100.591 46.1777 100.412C46.3128 100.231 46.3804 99.9787 46.3804 99.6548C46.3804 99.3651 46.3112 99.1307 46.1729 98.9517C46.0361 98.771 45.8538 98.6807 45.626 98.6807C45.403 98.6807 45.2231 98.7694 45.0864 98.9468C44.9497 99.1242 44.8813 99.3781 44.8813 99.7085ZM48.0112 97.7188V98.3584H48.5044V98.7075H48.0112V100.346C48.0112 100.451 48.0332 100.531 48.0771 100.585C48.1211 100.637 48.196 100.663 48.3018 100.663C48.3538 100.663 48.4255 100.653 48.5166 100.634V101C48.3978 101.033 48.2822 101.049 48.1699 101.049C47.9681 101.049 47.8159 100.988 47.7134 100.866C47.6108 100.744 47.5596 100.57 47.5596 100.346V98.7075H47.0786V98.3584H47.5596V97.7188H48.0112ZM50.1304 101.049C49.7723 101.049 49.481 100.932 49.2563 100.697C49.0317 100.461 48.9194 100.146 48.9194 99.7524V99.6694C48.9194 99.4074 48.9691 99.1738 49.0684 98.9688C49.1693 98.762 49.3092 98.6009 49.4883 98.4854C49.6689 98.3682 49.8643 98.3096 50.0742 98.3096C50.4176 98.3096 50.6846 98.4227 50.875 98.6489C51.0654 98.8752 51.1606 99.1991 51.1606 99.6206V99.8086H49.3711C49.3776 100.069 49.4533 100.28 49.5981 100.441C49.7446 100.6 49.9302 100.68 50.1548 100.68C50.3143 100.68 50.4494 100.648 50.5601 100.583C50.6707 100.517 50.7676 100.431 50.8506 100.324L51.1265 100.539C50.9051 100.879 50.5731 101.049 50.1304 101.049ZM50.0742 98.6807C49.8919 98.6807 49.7389 98.7474 49.6152 98.8809C49.4915 99.0127 49.415 99.1982 49.3857 99.4375H50.709V99.4033C50.696 99.1738 50.6341 98.9964 50.5234 98.8711C50.4128 98.7441 50.263 98.6807 50.0742 98.6807ZM55.1621 99.7085C55.1621 100.112 55.0693 100.437 54.8838 100.683C54.6982 100.927 54.4492 101.049 54.1367 101.049C53.8031 101.049 53.5451 100.931 53.3628 100.695L53.3408 101H52.9258V97.25H53.3774V98.6489C53.5597 98.4227 53.8112 98.3096 54.1318 98.3096C54.4525 98.3096 54.7039 98.4308 54.8862 98.6733C55.0701 98.9159 55.1621 99.2479 55.1621 99.6694V99.7085ZM54.7104 99.6572C54.7104 99.3496 54.651 99.112 54.5322 98.9443C54.4134 98.7767 54.2425 98.6929 54.0195 98.6929C53.7217 98.6929 53.5076 98.8312 53.3774 99.1079V100.25C53.5158 100.527 53.7314 100.666 54.0244 100.666C54.2409 100.666 54.4093 100.582 54.5298 100.414C54.6502 100.246 54.7104 99.9941 54.7104 99.6572ZM57.3643 100.739C57.1885 100.945 56.9305 101.049 56.5903 101.049C56.3088 101.049 56.0939 100.967 55.9458 100.805C55.7993 100.64 55.7253 100.398 55.7236 100.077V98.3584H56.1753V100.065C56.1753 100.465 56.3381 100.666 56.6636 100.666C57.0086 100.666 57.2381 100.537 57.3521 100.28V98.3584H57.8037V101H57.374L57.3643 100.739ZM59.105 97.7188V98.3584H59.5981V98.7075H59.105V100.346C59.105 100.451 59.127 100.531 59.1709 100.585C59.2148 100.637 59.2897 100.663 59.3955 100.663C59.4476 100.663 59.5192 100.653 59.6104 100.634V101C59.4915 101.033 59.376 101.049 59.2637 101.049C59.0618 101.049 58.9097 100.988 58.8071 100.866C58.7046 100.744 58.6533 100.57 58.6533 100.346V98.7075H58.1724V98.3584H58.6533V97.7188H59.105ZM60.7407 97.7188V98.3584H61.2339V98.7075H60.7407V100.346C60.7407 100.451 60.7627 100.531 60.8066 100.585C60.8506 100.637 60.9255 100.663 61.0312 100.663C61.0833 100.663 61.1549 100.653 61.2461 100.634V101C61.1273 101.033 61.0117 101.049 60.8994 101.049C60.6976 101.049 60.5454 100.988 60.4429 100.866C60.3403 100.744 60.2891 100.57 60.2891 100.346V98.7075H59.8081V98.3584H60.2891V97.7188H60.7407ZM61.5952 99.6548C61.5952 99.396 61.6457 99.1632 61.7466 98.9565C61.8491 98.7498 61.9907 98.5903 62.1714 98.478C62.3537 98.3657 62.5612 98.3096 62.7939 98.3096C63.1536 98.3096 63.4442 98.4341 63.6655 98.6831C63.8885 98.9321 64 99.2633 64 99.6768V99.7085C64 99.9657 63.9504 100.197 63.8511 100.402C63.7534 100.605 63.6126 100.764 63.4287 100.878C63.2464 100.992 63.0365 101.049 62.7988 101.049C62.4408 101.049 62.1502 100.924 61.9272 100.675C61.7059 100.426 61.5952 100.097 61.5952 99.6865V99.6548ZM62.0493 99.7085C62.0493 100.001 62.1169 100.237 62.252 100.414C62.3887 100.591 62.571 100.68 62.7988 100.68C63.0283 100.68 63.2106 100.591 63.3457 100.412C63.4808 100.231 63.5483 99.9787 63.5483 99.6548C63.5483 99.3651 63.4792 99.1307 63.3408 98.9517C63.2041 98.771 63.0218 98.6807 62.7939 98.6807C62.571 98.6807 62.3911 98.7694 62.2544 98.9468C62.1177 99.1242 62.0493 99.3781 62.0493 99.7085ZM64.9937 98.3584L65.0083 98.6904C65.2101 98.4365 65.4738 98.3096 65.7993 98.3096C66.3576 98.3096 66.6392 98.6245 66.644 99.2544V101H66.1924V99.252C66.1908 99.0615 66.1468 98.9207 66.0605 98.8296C65.9759 98.7384 65.8433 98.6929 65.6626 98.6929C65.5161 98.6929 65.3875 98.7319 65.2769 98.8101C65.1662 98.8882 65.0799 98.9907 65.0181 99.1177V101H64.5664V98.3584H64.9937Z" fill="black"/>
<path d="M132.386 11.2315C132.514 11.0184 132.445 10.742 132.232 10.6141L128.759 8.53042C128.546 8.40255 128.269 8.47166 128.141 8.68477C128.013 8.89788 128.083 9.1743 128.296 9.30216L131.383 11.1543L129.53 14.2413C129.403 14.4544 129.472 14.7309 129.685 14.8587C129.898 14.9866 130.174 14.9175 130.302 14.7044L132.386 11.2315ZM120.109 14.4366L132.109 11.4366L131.891 10.5634L119.891 13.5634L120.109 14.4366Z" fill="black"/>
</g>
<defs>
<clipPath id="clip0">
<rect width="180" height="183" fill="white" transform="translate(0.929077 0.579132)"/>
</clipPath>
</defs>
</svg>
